<svg xmlns="http://www.w3.org/2000/svg" width="203" height="106" viewBox="0 0 203 106"><defs><style>.a{fill:#eaad68;}.b{opacity:0.2;}.c{fill:#fff;}</style></defs><g transform="translate(-478 -2580)"><rect class="a" width="203" height="106" rx="5" transform="translate(478 2580)"/><g class="b" transform="translate(576.414 2585.113)"><path class="c" d="M180.1,396.827a6.228,6.228,0,0,0-1.9,3.2,6.668,6.668,0,0,0,.705,5.062,4.685,4.685,0,0,0,.77.962,12.024,12.024,0,0,0,6.256,3.6,13.6,13.6,0,0,0,6.118-.162,21.586,21.586,0,0,0,7.73-3.634,10.361,10.361,0,0,0,1.611-1.686,25.459,25.459,0,0,0,4.809-7.933,15.334,15.334,0,0,0,.878-7.782,9.462,9.462,0,0,0-2.023-4.764,8.6,8.6,0,0,0-11.433-1.37,8.014,8.014,0,0,0-3.429,5.991,7.058,7.058,0,0,0,.21,2.488,29.878,29.878,0,0,1,.842,5.25,17.251,17.251,0,0,1-.2,4.912,7.018,7.018,0,0,1-4.824,5.644,5.072,5.072,0,0,1-6.511-3.263,4.128,4.128,0,0,1,.448-3.572,2.68,2.68,0,0,1,3.363-.953,1.337,1.337,0,0,1,.771,1.514c-.045.427-.165.845-.252,1.267-.014.069-.031.138-.047.207l.06.069a5.779,5.779,0,0,0,.725-.441,3.19,3.19,0,0,0-.409-4.984A3.738,3.738,0,0,0,180.1,396.827Z" transform="translate(-140.514 -351.034)"/><path class="c" d="M223.052,307.564a18.347,18.347,0,0,0-1.738-6.922c-.048-.1-.1-.207-.144-.315a11.225,11.225,0,0,0-1.108-1.749,17.147,17.147,0,0,0-5.132-4.55,11.06,11.06,0,0,0-4.776-1.5,9.946,9.946,0,0,0-5.747,1.43,3.957,3.957,0,0,0-.837.6,5.562,5.562,0,0,0-1.716,3.883,5.14,5.14,0,0,0,.8,2.99,3.166,3.166,0,0,0,3.405,1.312,2.566,2.566,0,0,0,1.734-1.63,2.6,2.6,0,0,0-.215-2.405,2.475,2.475,0,0,0-.334-.37c-.048-.052-.1-.1-.148-.152l-.1-.1-.267-.256.011.423-.007.141c0,.037,0,.078,0,.115-.011.1-.015.215-.023.323a5.287,5.287,0,0,1-.063.7.908.908,0,0,1-.789.864,1.981,1.981,0,0,1-2.2-1.36,3.157,3.157,0,0,1,.423-2.727,3.817,3.817,0,0,1,2.5-1.682,3.93,3.93,0,0,1,3.028.641,5.492,5.492,0,0,1,2.416,5.284,13.7,13.7,0,0,1-.919,3.8,24.281,24.281,0,0,1-1.8,3.858,5.875,5.875,0,0,0-.734,1.938,6.634,6.634,0,0,0,1.367,5.532,6.922,6.922,0,0,0,4.024,2.483,7.021,7.021,0,0,0,5.366-.978A7.707,7.707,0,0,0,222,313.871,12.462,12.462,0,0,0,223.052,307.564Zm-1.364,6.158a7.357,7.357,0,0,1-2.557,3.176,6.761,6.761,0,0,1-8.934-1.427,6.3,6.3,0,0,1-1.3-5.262,5.46,5.46,0,0,1,.689-1.827,24.591,24.591,0,0,0,1.827-3.909,14.138,14.138,0,0,0,.941-3.895,5.823,5.823,0,0,0-2.561-5.6,4.335,4.335,0,0,0-1.567-.682,4.285,4.285,0,0,0-1.723-.011,4.157,4.157,0,0,0-2.72,1.83,3.5,3.5,0,0,0-.463,3.009,2.325,2.325,0,0,0,2.586,1.6,1.245,1.245,0,0,0,1.075-1.141,6.294,6.294,0,0,0,.07-.738,1.943,1.943,0,0,1,.011-.207,1.7,1.7,0,0,1,.23.267,2.4,2.4,0,0,1-1.319,3.509,2.845,2.845,0,0,1-3.042-1.167,4.847,4.847,0,0,1-.737-2.8,5.163,5.163,0,0,1,1.619-3.646,3.426,3.426,0,0,1,.774-.548,9.545,9.545,0,0,1,5.544-1.382,10.636,10.636,0,0,1,4.632,1.456,16.793,16.793,0,0,1,5.029,4.458,11.244,11.244,0,0,1,1.067,1.682c.048.107.1.211.145.315a17.948,17.948,0,0,1,1.708,6.8A12.127,12.127,0,0,1,221.688,313.722Z" transform="translate(-156.352 -292.51)"/><path class="c" d="M196.392,364.928a2.281,2.281,0,1,0,1.756,2.712A2.282,2.282,0,0,0,196.392,364.928Zm1.419,2.638a1.938,1.938,0,1,1-1.486-2.3A1.935,1.935,0,0,1,197.811,367.566Z" transform="translate(-150.902 -340.511)"/><g transform="translate(70.885 18.349)"><path class="c" d="M280.559,347.067a2.736,2.736,0,1,0,2.1,3.25A2.742,2.742,0,0,0,280.559,347.067Zm1.771,3.179a2.4,2.4,0,1,1-1.842-2.846A2.4,2.4,0,0,1,282.33,350.246Z" transform="translate(-277.248 -347.006)"/><path class="c" d="M283.562,352.083a1.035,1.035,0,1,0,.793,1.23A1.033,1.033,0,0,0,283.562,352.083Zm.46,1.156a.692.692,0,1,1-.53-.823A.694.694,0,0,1,284.022,353.239Z" transform="translate(-280.608 -350.359)"/></g><path class="c" d="M301.935,379.024a25.422,25.422,0,0,0-7.288-5.745,15.263,15.263,0,0,0-7.613-1.826,9.431,9.431,0,0,0-4.974,1.422,8.6,8.6,0,0,0-2.766,11.178,8.028,8.028,0,0,0,5.525,4.137,6.966,6.966,0,0,0,2.492.1,29.7,29.7,0,0,1,5.318-.192,17.255,17.255,0,0,1,4.85.8,7.03,7.03,0,0,1,5.012,5.482,5.078,5.078,0,0,1-4.038,6.062,4.135,4.135,0,0,1-3.491-.883,2.676,2.676,0,0,1-.533-3.455,1.328,1.328,0,0,1,1.6-.577c.419.1.819.265,1.23.4l.2.073.077-.052a6.491,6.491,0,0,0-.349-.775,3.192,3.192,0,0,0-5-.205,3.744,3.744,0,0,0-.148,4.287,6.243,6.243,0,0,0,2.944,2.277,6.659,6.659,0,0,0,5.109-.077,4.683,4.683,0,0,0,1.048-.646,12.045,12.045,0,0,0,4.341-5.766,13.662,13.662,0,0,0,.59-6.093,19.377,19.377,0,0,0-2.579-7.672A14.086,14.086,0,0,0,301.935,379.024Zm-18.62,1.536a1.829,1.829,0,1,1,2.324-1.128A1.832,1.832,0,0,1,283.315,380.56Zm5.507,1.913a1.829,1.829,0,1,1-1.127-2.329A1.823,1.823,0,0,1,288.822,382.472Zm1.072-4.137a1.83,1.83,0,1,1-1.127-2.329A1.833,1.833,0,0,1,289.894,378.335Z" transform="translate(-207.041 -344.866)"/><g transform="translate(0 11.561)"><path class="c" d="M124.177,327.7a27.457,27.457,0,0,1,2.977.459l.1-.5a27.987,27.987,0,0,0-3.033-.468Z" transform="translate(-104.83 -327.075)"/><path class="c" d="M86.281,375.3l.054-.063-.39-.324-.043.05a3.023,3.023,0,0,1-2.45.984l-.038.506a3.51,3.51,0,0,0,1.868-.381A3.44,3.44,0,0,0,86.281,375.3Z" transform="translate(-77.792 -358.732)"/><path class="c" d="M106.578,351.708l.4-.317a9.53,9.53,0,0,0-2.3-2.1l-.272.428A9.029,9.029,0,0,1,106.578,351.708Z" transform="translate(-91.714 -341.736)"/><path class="c" d="M67.1,354.042a6.351,6.351,0,0,0-.385,1.344l.5.066a6,6,0,0,1,.361-1.245c.195-.528.413-1.042.649-1.528l-.456-.222C67.53,352.958,67.306,353.487,67.1,354.042Z" transform="translate(-66.716 -343.833)"/><path class="c" d="M91.554,329.526a16.37,16.37,0,0,0-2.761,1.109l-.1.051.235.449.094-.048a15.864,15.864,0,0,1,2.677-1.075Z" transform="translate(-81.295 -328.623)"/><path class="c" d="M182.195,388.966c-.022.071-.044.143-.068.213l.481.16c.025-.075.049-.149.072-.225a9.792,9.792,0,0,0,.424-2.844l-.507,0A9.276,9.276,0,0,1,182.195,388.966Z" transform="translate(-143.268 -366.26)"/><path class="c" d="M80.74,385.418l.008-.507a4.09,4.09,0,0,1-1.147-.184,6.263,6.263,0,0,1-1.564-.736l-.276.425a6.776,6.776,0,0,0,1.69.8A4.589,4.589,0,0,0,80.74,385.418Z" transform="translate(-74.042 -364.75)"/><path class="c" d="M96.41,376.984l-.506-.037a2.981,2.981,0,0,1-.572,1.582,4.277,4.277,0,0,1-.786.8l.312.4a4.761,4.761,0,0,0,.88-.9A3.484,3.484,0,0,0,96.41,376.984Z" transform="translate(-85.176 -360.078)"/><path class="c" d="M72.8,367.853a5.187,5.187,0,0,1-.526-1.808l0-.025-.5.056,0,.028a5.689,5.689,0,0,0,.579,1.981,4.957,4.957,0,0,0,.6.9l.39-.325A4.449,4.449,0,0,1,72.8,367.853Z" transform="translate(-70.067 -352.83)"/><path class="c" d="M180.653,371.487l.494-.113q-.048-.21-.1-.419a16.509,16.509,0,0,0-.855-2.514l-.465.2a16.014,16.014,0,0,1,.828,2.436C180.59,371.215,180.622,371.35,180.653,371.487Z" transform="translate(-141.677 -354.436)"/><path class="c" d="M126.447,398.584c.032.063.066.126.1.19a10.8,10.8,0,0,0,1.234,1.813l.387-.327a10.271,10.271,0,0,1-1.175-1.728c-.032-.06-.064-.119-.095-.179-.1-.2-.2-.4-.282-.605l-.468.2C126.239,398.159,126.339,398.375,126.447,398.584Z" transform="translate(-106.137 -373.874)"/><path class="c" d="M74.673,340.27l.4.31a13.5,13.5,0,0,1,2.069-2.143l-.323-.391A14.026,14.026,0,0,0,74.673,340.27Z" transform="translate(-71.994 -334.275)"/><path class="c" d="M73.616,352.271a5.861,5.861,0,0,1,1.758-2.288l-.313-.4a6.361,6.361,0,0,0-1.91,2.487Z" transform="translate(-70.984 -341.928)"/><path class="c" d="M121.891,380.434c.3,1.054.53,2.013.7,2.935l.5-.092c-.173-.937-.406-1.912-.711-2.981Z" transform="translate(-103.314 -362.298)"/><path class="c" d="M140.908,412.488l.124-.491a10.135,10.135,0,0,1-2.738-1.117l-.261.435A10.618,10.618,0,0,0,140.908,412.488Z" transform="translate(-114.021 -382.586)"/><path class="c" d="M155.7,414.328a10.418,10.418,0,0,0,3.038-.649l-.178-.475a9.907,9.907,0,0,1-2.89.617Z" transform="translate(-125.718 -384.127)"/><path class="c" d="M172.306,355.588a21.746,21.746,0,0,0-1.874-2.439l-.38.336a21.172,21.172,0,0,1,1.831,2.381Z" transform="translate(-135.258 -344.293)"/><path class="c" d="M67.71,370.066l-.494.115a7.63,7.63,0,0,0,1.3,2.837l.408-.3a7.118,7.118,0,0,1-1.219-2.651Z" transform="translate(-67.048 -355.514)"/><path class="c" d="M87.93,345.508c-.2.016-.4.041-.6.075l.086.5c.182-.031.368-.055.552-.07a9.2,9.2,0,0,1,2.387.108l.092-.5A9.726,9.726,0,0,0,87.93,345.508Z" transform="translate(-80.391 -339.202)"/><path class="c" d="M117.295,366.08a22.856,22.856,0,0,0-1.2-2.789l-.018-.034-.451.232.018.034a22.366,22.366,0,0,1,1.17,2.728Z" transform="translate(-99.161 -350.997)"/><path class="c" d="M156.732,341.438a27.716,27.716,0,0,1,2.359,1.874l.337-.378a28.108,28.108,0,0,0-2.4-1.909Z" transform="translate(-126.424 -336.251)"/><path class="c" d="M88.5,364.066c-.1-.009-.208-.019-.311-.032l-.21-.028-.138.429.126.17c.033.045.067.089.1.135.091.13.186.259.281.387l.093.126.409-.3-.094-.128c-.06-.081-.12-.162-.178-.244a2.864,2.864,0,0,1,.516.086,3.061,3.061,0,0,1,1.52,1.038l.394-.319a3.564,3.564,0,0,0-1.773-1.205A3.885,3.885,0,0,0,88.5,364.066Z" transform="translate(-80.731 -351.494)"/><path class="c" d="M141.461,331.882l-.225.454.19.093c.87.423,1.707.866,2.486,1.317l.254-.439c-.79-.457-1.638-.905-2.519-1.334Z" transform="translate(-116.145 -330.186)"/><path class="c" d="M106.192,327.6a24.94,24.94,0,0,1,3-.247l-.011-.507a25.339,25.339,0,0,0-3.061.252Z" transform="translate(-92.853 -326.845)"/><path class="c" d="M171.95,404.817l.306.4a10.576,10.576,0,0,0,2.179-2.213l-.41-.3A10.083,10.083,0,0,1,171.95,404.817Z" transform="translate(-136.518 -377.166)"/></g></g></g></svg>