<svg xmlns="http://www.w3.org/2000/svg" width="381" height="430" viewBox="0 0 381 430"><defs><style>.a{fill:#342766;}.b{opacity:0.15;}.c{fill:#fff;}</style></defs><g transform="translate(-492 -2898)"><path class="a" d="M0,0H381V430H0Z" transform="translate(492 2898)"/><g class="b" transform="translate(492 2898)"><path class="c" d="M565.1,463.329a12.573,12.573,0,0,1-1.737,2.845,17.967,17.967,0,0,1-12.138,6.429,16.626,16.626,0,0,1-9.83-1.867,10.156,10.156,0,0,1-4.958-10.576,8.16,8.16,0,0,1,4.79-5.859,8.256,8.256,0,0,1,7.666.13,8.729,8.729,0,0,1,1.258.972c.174.149.349.311.53.454l.2.162-.311.557-.324.039c-.123.02-.252.032-.376.052-.349.051-.7.1-1.05.136a20.854,20.854,0,0,0-2.293.376,3.259,3.259,0,0,0-2.846,3.027,6.751,6.751,0,0,0,5.179,7.174,10.614,10.614,0,0,0,9.04-2.068,12.814,12.814,0,0,0,5.022-8.742,13.177,13.177,0,0,0-2.864-9.961c-4.537-5.625-10.628-7.9-18.107-6.766a45.17,45.17,0,0,0-12.3,3.927,80.683,80.683,0,0,0-12.241,6.811,18.894,18.894,0,0,1-6.08,2.818,21.533,21.533,0,0,1-18.23-3.143,22.964,22.964,0,0,1-9.883-19.669v-.007c.007-.3.02-.6.039-.894v-.007h.59v.007q-.03.447-.039.894v.007a22.389,22.389,0,0,0,9.624,19.177,20.953,20.953,0,0,0,16.6,3.337c.382-.083.764-.174,1.146-.278a18.176,18.176,0,0,0,5.891-2.729,80.567,80.567,0,0,1,12.333-6.863,45.622,45.622,0,0,1,12.462-3.979c7.7-1.173,13.986,1.179,18.665,6.986a13.769,13.769,0,0,1,2.987,10.4,13.393,13.393,0,0,1-5.255,9.144,11.176,11.176,0,0,1-9.527,2.177,7.343,7.343,0,0,1-5.638-7.809,3.837,3.837,0,0,1,3.286-3.551,18.764,18.764,0,0,1,2.371-.389c.344-.045.694-.084,1.031-.136.071-.013.142-.02.207-.026-.078-.071-.149-.136-.227-.2a7.329,7.329,0,0,0-1.161-.9,7.679,7.679,0,0,0-7.122-.111,7.568,7.568,0,0,0-4.446,5.424,9.578,9.578,0,0,0,4.659,9.954,16.078,16.078,0,0,0,9.494,1.789c4.484-.363,8.32-2.4,11.736-6.229a11.755,11.755,0,0,0,1.646-2.722,31.63,31.63,0,0,0,3.26-18.625,34.817,34.817,0,0,0-5.2-13.842v-.007c-.187-.3-.382-.6-.57-.894a.006.006,0,0,1-.006-.007h.706a.006.006,0,0,0,.007.007c.195.3.382.6.564.894a.006.006,0,0,1,.007.007,35.177,35.177,0,0,1,5.08,13.764A32.238,32.238,0,0,1,565.1,463.329Z" transform="translate(-418.573 -429.363)"/><path class="c" d="M555.43,402.466a32.061,32.061,0,0,1-3.04,12.105c-.084.182-.169.364-.253.551a19.606,19.606,0,0,1-1.937,3.06,30,30,0,0,1-8.976,7.958,19.334,19.334,0,0,1-8.353,2.618,17.391,17.391,0,0,1-10.052-2.5,6.864,6.864,0,0,1-1.464-1.056,9.728,9.728,0,0,1-3-6.792,9,9,0,0,1,1.394-5.229,5.54,5.54,0,0,1,5.956-2.295,4.493,4.493,0,0,1,3.033,2.851,4.557,4.557,0,0,1-.376,4.207,4.316,4.316,0,0,1-.584.648c-.083.091-.174.175-.259.266l-.169.181-.467.447.02-.739-.013-.247c0-.065-.007-.136-.007-.2-.019-.182-.025-.376-.038-.564a9.3,9.3,0,0,0-.111-1.217,1.587,1.587,0,0,0-1.38-1.51,3.464,3.464,0,0,0-3.856,2.378,5.519,5.519,0,0,0,.739,4.77A6.677,6.677,0,0,0,526.6,425.1a6.876,6.876,0,0,0,5.295-1.121,9.607,9.607,0,0,0,4.225-9.242,23.974,23.974,0,0,0-1.608-6.649,42.462,42.462,0,0,0-3.149-6.746,10.248,10.248,0,0,1-1.283-3.389,11.6,11.6,0,0,1,2.391-9.676,12.1,12.1,0,0,1,7.038-4.342,12.279,12.279,0,0,1,9.383,1.711,13.472,13.472,0,0,1,4.692,5.793A21.789,21.789,0,0,1,555.43,402.466Zm-2.386-10.771a12.872,12.872,0,0,0-4.471-5.555,11.825,11.825,0,0,0-15.625,2.5,11.023,11.023,0,0,0-2.275,9.2,9.566,9.566,0,0,0,1.205,3.2,43.016,43.016,0,0,1,3.2,6.837,24.767,24.767,0,0,1,1.646,6.812,10.186,10.186,0,0,1-4.479,9.786,7.588,7.588,0,0,1-2.741,1.192,7.479,7.479,0,0,1-3.013.02,7.271,7.271,0,0,1-4.757-3.2,6.123,6.123,0,0,1-.811-5.263,4.07,4.07,0,0,1,4.523-2.8,2.177,2.177,0,0,1,1.879,2,11.048,11.048,0,0,1,.124,1.29,3.343,3.343,0,0,0,.02.363,2.957,2.957,0,0,0,.4-.467,4.2,4.2,0,0,0-2.307-6.137,4.975,4.975,0,0,0-5.321,2.041,8.476,8.476,0,0,0-1.289,4.9,9.025,9.025,0,0,0,2.832,6.378,5.975,5.975,0,0,0,1.354.959,16.7,16.7,0,0,0,9.695,2.417,18.586,18.586,0,0,0,8.1-2.547,29.354,29.354,0,0,0,8.794-7.8,19.609,19.609,0,0,0,1.867-2.942c.084-.187.168-.369.252-.55a31.4,31.4,0,0,0,2.988-11.893A21.2,21.2,0,0,0,553.044,391.695Z" transform="translate(-415.205 -335.028)"/><path class="c" d="M553.713,343.937l0,.6a16.508,16.508,0,0,1-3.612-.422l.135-.581A15.92,15.92,0,0,0,553.713,343.937Z" transform="translate(-412.164 -206.812)"/><path class="c" d="M544.062,350.44a6.116,6.116,0,0,0,.865,2.029l.019.027-.248.168-.267.136a6.692,6.692,0,0,1-.951-2.235,5.88,5.88,0,0,1-.129-1.268l.6,0A5.314,5.314,0,0,0,544.062,350.44Z" transform="translate(-412.81 -221.395)"/><path class="c" d="M545.759,345.861c.571.335,1.153.64,1.729.906l-.25.541c-.594-.274-1.193-.587-1.793-.939a7.418,7.418,0,0,1-1.353-.937L544.5,345A7.047,7.047,0,0,0,545.759,345.861Z" transform="translate(-412.739 -211.191)"/><path class="c" d="M562.561,384.456l-.023-.6a12.459,12.459,0,0,1,3.633.389l-.15.577A11.85,11.85,0,0,0,562.561,384.456Z" transform="translate(-410.972 -291.284)"/><path class="c" d="M570.428,350.786a32.8,32.8,0,0,1-2.411,2.688l-.421-.423a32.17,32.17,0,0,0,2.366-2.639Z" transform="translate(-410.487 -223.29)"/><path class="c" d="M572.709,355.752l.559.21c-.38,1.007-.816,2.048-1.3,3.092l-.1.221-.544-.244.1-.227C571.9,357.773,572.334,356.746,572.709,355.752Z" transform="translate(-410.13 -234.944)"/><path class="c" d="M568.624,381l.319-.5c.078.049.156.1.232.151a11.493,11.493,0,0,1,2.507,2.272l-.459.38a10.881,10.881,0,0,0-2.379-2.155C568.771,381.091,568.7,381.044,568.624,381Z" transform="translate(-410.389 -286.075)"/><path class="c" d="M553.107,349.366c.188-.107.375-.225.553-.348a10.821,10.821,0,0,0,2.091-1.878l.456.385A11.4,11.4,0,0,1,554,349.507c-.194.134-.4.261-.6.377Z" transform="translate(-411.876 -216.114)"/><path class="c" d="M541.659,358.945a7.921,7.921,0,0,1,.945-1.983,5.406,5.406,0,0,1,1.019-1.15l.386.455a4.822,4.822,0,0,0-.907,1.023,7.387,7.387,0,0,0-.874,1.835Z" transform="translate(-412.972 -234.859)"/><path class="c" d="M559.737,382.719a11.65,11.65,0,0,0-3.09,1.593l-.351-.483a12.277,12.277,0,0,1,3.249-1.676Z" transform="translate(-411.57 -288.912)"/><path class="c" d="M546.666,355.942a3.518,3.518,0,0,0-1.7.9l-.412-.433a4.122,4.122,0,0,1,1.982-1.045h0a4.035,4.035,0,0,1,1.482-.042c.034,0,.067.011.1.018l-.115.585c-.024-.005-.049-.01-.076-.013a3.44,3.44,0,0,0-1.266.036Z" transform="translate(-412.694 -231.974)"/><path class="c" d="M559.944,343.865l.228.551a19.318,19.318,0,0,1-3.339,1.05l-.127.026-.122-.584.122-.025A18.729,18.729,0,0,0,559.944,343.865Z" transform="translate(-411.542 -208.134)"/><path class="c" d="M557.554,352.22l.6-.007a11.159,11.159,0,0,1-.528,3.622l-.567-.186A10.584,10.584,0,0,0,557.554,352.22Z" transform="translate(-411.497 -227.625)"/><path class="c" d="M565.8,346.823a29.808,29.808,0,0,1-2.973,2.054l-.309-.511a29.107,29.107,0,0,0,2.914-2.012Z" transform="translate(-410.974 -214.246)"/><path class="c" d="M557.788,362.127l.01.044-.583.125-.01-.044a26.358,26.358,0,0,0-.97-3.355l.562-.2A26.754,26.754,0,0,1,557.788,362.127Z" transform="translate(-411.576 -241.19)"/><path class="c" d="M542.035,350.752a8.471,8.471,0,0,0,.694,1.979l-.536.264a9.084,9.084,0,0,1-.741-2.118,9.2,9.2,0,0,1-.188-1.437l.6-.031A8.52,8.52,0,0,0,542.035,350.752Z" transform="translate(-413.01 -221.714)"/><path class="c" d="M547.947,359.163a4.942,4.942,0,0,0-1.311-.141l-.014-.6a5.571,5.571,0,0,1,1.467.158,4.107,4.107,0,0,1,1.991,1.182l-.433.411A3.51,3.51,0,0,0,547.947,359.163Z" transform="translate(-412.497 -238.773)"/><path class="c" d="M555.174,368.3c-.512-1.182-1.018-2.227-1.551-3.192l.522-.288c.542.982,1.057,2.043,1.577,3.244Z" transform="translate(-411.826 -253.899)"/><path class="c" d="M552.028,373.535c-.018-.081-.034-.163-.05-.247a12.74,12.74,0,0,1-.23-2.57l.6.009a12.1,12.1,0,0,0,.219,2.449c.015.079.031.156.047.233.055.256.121.513.2.762l-.572.171C552.155,374.079,552.086,373.807,552.028,373.535Z" transform="translate(-412.006 -266.412)"/><path class="c" d="M547.125,346.247a6.911,6.911,0,0,0,3.306.77l.012.6a7.492,7.492,0,0,1-3.593-.838Z" transform="translate(-412.475 -212.867)"/><path class="c" d="M550.633,352.444l.6,0a4.2,4.2,0,0,1-.714,2.42,4.612,4.612,0,0,1-.581.651c-.088.087-.175.173-.26.262l-.17.182-.446-.289-.012-.245c0-.066-.005-.132-.011-.2-.015-.194-.024-.389-.035-.583l-.008-.165.6-.032.009.167c.007.125.013.25.021.375a3.3,3.3,0,0,0,.405-.464A3.6,3.6,0,0,0,550.633,352.444Z" transform="translate(-412.27 -227.995)"/><path class="c" d="M552.342,380.341a12.524,12.524,0,0,1,1.741-3.212l.479.355a11.938,11.938,0,0,0-1.658,3.057Z" transform="translate(-411.949 -279.634)"/><path class="c" d="M574.488,368.467l.593-.062a25.455,25.455,0,0,1,.113,3.617l-.6-.023A24.9,24.9,0,0,0,574.488,368.467Z" transform="translate(-409.827 -261.555)"/><path class="c" d="M574.928,362a33.165,33.165,0,0,1-.763,3.528l-.575-.157a32.3,32.3,0,0,0,.748-3.465Z" transform="translate(-409.913 -247.937)"/><path class="c" d="M572.931,375.516c-.07-.149-.142-.3-.216-.445l.535-.265c.075.151.149.3.22.456a19.306,19.306,0,0,1,1.1,2.925l-.573.164A18.867,18.867,0,0,0,572.931,375.516Z" transform="translate(-409.997 -274.898)"/><path class="c" d="M480.73,454.4c-.142.3-.311.6-.487.894a.006.006,0,0,0-.007.007,24.514,24.514,0,0,1-3.136,4.161,31.538,31.538,0,0,1-13.746,8.489,52.115,52.115,0,0,1-18.93,2.295c-.285-.013-.583-.02-.874-.033a16.3,16.3,0,0,1-3.934-.441,44.339,44.339,0,0,1-15.392-7.654v-.752c.02.013.039.033.058.046a43.97,43.97,0,0,0,15.489,7.79,16.389,16.389,0,0,0,3.8.421c.291.007.583.013.874.026a55.722,55.722,0,0,0,14.18-1.038,44.935,44.935,0,0,0,4.537-1.224,31.015,31.015,0,0,0,13.493-8.328,25.144,25.144,0,0,0,2.878-3.759.006.006,0,0,1,.007-.007c.181-.3.356-.59.512-.894a.006.006,0,0,0,.007-.007h.674Z" transform="translate(-424.223 -454.076)"/><path class="c" d="M427.056,418.279a4.762,4.762,0,0,0-2.833.629v4.43a3.367,3.367,0,0,1,3.076-1.933,1.666,1.666,0,0,1,1.652,1.325c.163.506.243,1.042.358,1.568.019.088.034.171.053.259l.1.046a6.981,6.981,0,0,0,.6-.868A3.975,3.975,0,0,0,427.056,418.279Z" transform="translate(-424.223 -368.767)"/><path class="c" d="M451.739,425.428a19.1,19.1,0,0,0-2.97-9.285,11.8,11.8,0,0,0-4.728-4.378,10.7,10.7,0,0,0-13.684,4.275,9.983,9.983,0,0,0-.842,8.554,8.847,8.847,0,0,0,1.508,2.719,36.95,36.95,0,0,1,3.635,5.535,21.507,21.507,0,0,1,2.285,5.68,8.742,8.742,0,0,1-2.6,8.869,6.316,6.316,0,0,1-9.06-.381,5.67,5.67,0,0,1-1.059-1.736v3.228a10.412,10.412,0,0,0,1.036.9,5.953,5.953,0,0,0,1.363.7,14.974,14.974,0,0,0,8.942.894,16.911,16.911,0,0,0,6.867-3.3,26.845,26.845,0,0,0,6.924-8.071,12.807,12.807,0,0,0,.971-2.737A31.612,31.612,0,0,0,451.739,425.428Z" transform="translate(-424.223 -387.293)"/><path class="c" d="M556.684,398.881a8.858,8.858,0,0,1,2.322-4.246,14.344,14.344,0,0,1,6.219-3.866,23.809,23.809,0,0,1,8.608-1.071,9.706,9.706,0,0,1,2.171.2,20.174,20.174,0,0,1,7.147,3.565,12.709,12.709,0,0,1,3.666,4.394,11.241,11.241,0,0,1,.985,6.677,4.345,4.345,0,0,1-.259,1.122,6.235,6.235,0,0,1-3.3,3.452,5.83,5.83,0,0,1-3.447.46,3.5,3.5,0,0,1-2.755-2.914,2.982,2.982,0,0,1,3.419-3.188,5.4,5.4,0,0,1,.745.275l-.016.084c-.059.029-.12.056-.179.085-.36.181-.737.335-1.076.549a1.251,1.251,0,0,0-.664,1.444,2.508,2.508,0,0,0,2.65,1.915,3.858,3.858,0,0,0,2.88-1.743,4.742,4.742,0,0,0-1.381-6.668,6.564,6.564,0,0,0-6.937-.267,16.144,16.144,0,0,0-3.718,2.7,28.1,28.1,0,0,0-3.364,3.661,6.591,6.591,0,0,1-1.7,1.6,7.49,7.49,0,0,1-6.383.957A8.038,8.038,0,0,1,556.684,398.881Z" transform="translate(-411.547 -322.501)"/><path class="c" d="M477.183,386.2a15.884,15.884,0,0,1-3.441,8.084,14.642,14.642,0,0,1-19.445,2.329,13.689,13.689,0,0,1-5.833-10.2,12.032,12.032,0,0,1,.358-4.242,50.646,50.646,0,0,0,1.4-8.737,28.661,28.661,0,0,0-.327-8.147,11.508,11.508,0,0,0-7.909-9.253,8.259,8.259,0,0,0-6.492.448,8.05,8.05,0,0,0-4.083,4.848,6.638,6.638,0,0,0,.722,5.77,4.218,4.218,0,0,0,5.317,1.507,2,2,0,0,0,1.154-2.292,12.357,12.357,0,0,0-.279-1.439l-.143-.653c-.015-.079-.037-.159-.053-.233l-.053-.232-.137-.6.454.237.174.105c.127.074.253.143.385.217a5.719,5.719,0,0,1,.859.537,5.311,5.311,0,0,1,1.754,4.579A5.226,5.226,0,0,1,439.09,373a6.485,6.485,0,0,1-7.419-.665,10.577,10.577,0,0,1-3.251-5.469,11.429,11.429,0,0,1,1.2-8.642,8.345,8.345,0,0,1,1.328-1.665,20.5,20.5,0,0,1,10.587-6.087.017.017,0,0,0,.015-.005,22.913,22.913,0,0,1,10.323.28,34.994,34.994,0,0,1,12.678,6.08,16.048,16.048,0,0,1,2.609,2.35c.158.179.306.364.463.543A42.677,42.677,0,0,1,475.7,373.06,25.732,25.732,0,0,1,477.183,386.2Zm-1.933-12.968a42.263,42.263,0,0,0-8-13.2c-.152-.184-.311-.363-.463-.548a15.541,15.541,0,0,0-2.524-2.271,34.411,34.411,0,0,0-12.51-6,22.344,22.344,0,0,0-10.107-.274h-.011a19.945,19.945,0,0,0-10.344,5.96,7.624,7.624,0,0,0-1.249,1.544,10.833,10.833,0,0,0-1.154,8.289,10.127,10.127,0,0,0,3.1,5.227,5.874,5.874,0,0,0,5.122,1.271,6.252,6.252,0,0,0,1.744-.659,4.727,4.727,0,0,0,2.229-3.773,4.783,4.783,0,0,0-1.581-4.163,4.955,4.955,0,0,0-.781-.49.323.323,0,0,0-.062-.037v.01c.042.217.094.432.142.643a11.789,11.789,0,0,1,.285,1.5,2.481,2.481,0,0,1-1.428,2.777,4.7,4.7,0,0,1-5.933-1.686,7.122,7.122,0,0,1-.775-6.171,8.542,8.542,0,0,1,4.327-5.138,8.759,8.759,0,0,1,6.871-.479,11.976,11.976,0,0,1,8.226,9.622,29.063,29.063,0,0,1,.331,8.284,50.727,50.727,0,0,1-1.412,8.821,11.592,11.592,0,0,0-.342,4.074,13.214,13.214,0,0,0,5.633,9.848,14.152,14.152,0,0,0,18.791-2.255,15.442,15.442,0,0,0,3.331-7.846A25.3,25.3,0,0,0,475.249,373.228Z" transform="translate(-423.858 -279.976)"/><path class="c" d="M471.118,436.224c.105-.008.21-.015.315-.027.3-.032.6-.056.905-.08l.405-.034.052.594-.409.034c-.3.024-.594.048-.891.08l-.081.008.118.113a7.454,7.454,0,0,0,.856.741l-.342.489a8.022,8.022,0,0,1-.927-.8c-.145-.138-.288-.276-.437-.408l-.187-.164.315-.52Z" transform="translate(-419.79 -401.836)"/><path class="c" d="M461.866,418.46c-.4-.6-.794-1.215-1.17-1.833-.254-.421-.5-.846-.734-1.265l.521-.29c.23.412.473.831.724,1.245.37.611.758,1.221,1.155,1.811Z" transform="translate(-420.799 -359.131)"/><path class="c" d="M491.6,430.522c1.135-.558,2.175-1.107,3.177-1.679l.3.518c-1.013.577-2.062,1.132-3.21,1.7Z" transform="translate(-417.768 -386.819)"/><path class="c" d="M460.784,437.907a11.856,11.856,0,0,1-.2-3.685l.593.061a11.272,11.272,0,0,0,.187,3.5Z" transform="translate(-420.745 -399.563)"/><path class="c" d="M495.789,397.971c-1.2-.055-2.414-.157-3.621-.3l.072-.592c1.191.145,2.394.245,3.576.3Z" transform="translate(-417.714 -318.922)"/><path class="c" d="M508.88,398.46a32.167,32.167,0,0,1-3.5,1.031l-.136-.581a31.506,31.506,0,0,0,3.43-1.013Z" transform="translate(-416.461 -321.343)"/><path class="c" d="M517.179,406.934l-.4-.437a18.054,18.054,0,0,0,2.361-2.649l.482.351A18.633,18.633,0,0,1,517.179,406.934Z" transform="translate(-415.356 -335.306)"/><path class="c" d="M516.189,427.8a18.628,18.628,0,0,1,2.6,2.584l-.459.38a18.03,18.03,0,0,0-2.517-2.5Z" transform="translate(-415.448 -385.372)"/><path class="c" d="M522.519,415.707a20.231,20.231,0,0,1,.158,3.658l-.6-.028a19.649,19.649,0,0,0-.152-3.55Z" transform="translate(-414.863 -360.732)"/><path class="c" d="M519.923,422.421l.524-.286a19.942,19.942,0,0,1,1.45,3.363l-.567.184A19.386,19.386,0,0,0,519.923,422.421Z" transform="translate(-415.055 -374.093)"/><path class="c" d="M521.1,412.84l-.542-.248a18.486,18.486,0,0,0,1.155-3.358l.58.139A19.01,19.01,0,0,1,521.1,412.84Z" transform="translate(-414.994 -347.115)"/><path class="c" d="M497.324,433.484a16.284,16.284,0,0,1,3.4-1.393l.163.573a15.7,15.7,0,0,0-3.273,1.342Z" transform="translate(-417.22 -393.327)"/><path class="c" d="M511.565,401.828a29.822,29.822,0,0,0,2.916-1.681l.328.5a30.167,30.167,0,0,1-2.973,1.715l-.191.1-.267-.534Z" transform="translate(-415.873 -326.772)"/><path class="c" d="M503.712,433.958a18.512,18.512,0,0,1,3.665.024l-.065.593a17.893,17.893,0,0,0-3.546-.023Z" transform="translate(-416.608 -395.855)"/><path class="c" d="M489.316,398.668l-.113.586c-1.165-.226-2.355-.5-3.539-.809l.151-.576C486.987,398.176,488.166,398.445,489.316,398.668Z" transform="translate(-418.337 -321.074)"/><path class="c" d="M510.343,431.894a18.953,18.953,0,0,1,3.354,1.475l-.29.521a18.516,18.516,0,0,0-3.249-1.429Z" transform="translate(-415.99 -392.994)"/><path class="c" d="M486.813,427.071c.755-.313,1.44-.606,2.094-.892l.239.546c-.658.288-1.346.582-2.1.9q-.62.258-1.242.5l-.216-.557Q486.2,427.327,486.813,427.071Z" transform="translate(-418.344 -380.964)"/><path class="c" d="M502.42,397.644c-1.17.148-2.391.243-3.628.285l-.02-.6c1.219-.041,2.421-.135,3.572-.281Z" transform="translate(-417.081 -318.853)"/><path class="c" d="M476.546,403.951a22.644,22.644,0,0,1-3.253-1.543l.312-.508a22.32,22.32,0,0,0,3.168,1.5l.052.021-.227.552Z" transform="translate(-419.522 -330.21)"/><path class="c" d="M470.865,408.15c-.942-.768-1.862-1.572-2.734-2.392l.409-.435c.861.81,1.771,1.605,2.7,2.364Z" transform="translate(-420.017 -338.138)"/><path class="c" d="M469.809,426.868a15.044,15.044,0,0,1-3.272-1.673l.334-.493a14.491,14.491,0,0,0,3.143,1.606Z" transform="translate(-420.169 -378.092)"/><path class="c" d="M470.724,449.147l.041.6a13.7,13.7,0,0,0-3.458.687l-.191-.565a14.365,14.365,0,0,1,1.568-.432A14.733,14.733,0,0,1,470.724,449.147Z" transform="translate(-420.114 -428.441)"/><path class="c" d="M466,413c-.821-.9-1.613-1.827-2.355-2.768l.468-.369c.733.93,1.516,1.85,2.326,2.734Z" transform="translate(-420.446 -347.965)"/><path class="c" d="M459.152,424.247l-.548.233a30.715,30.715,0,0,1-1.233-3.43l.572-.168A30.5,30.5,0,0,0,459.152,424.247Z" transform="translate(-421.047 -371.519)"/><path class="c" d="M464.673,446.208a17.909,17.909,0,0,0-2.763,2.224l-.416-.427a18.444,18.444,0,0,1,2.855-2.3Z" transform="translate(-420.652 -422.673)"/><path class="c" d="M463.22,429.534a18.941,18.941,0,0,0,1.4,1.686l-.435.409a19.286,19.286,0,0,1-1.449-1.741,12.072,12.072,0,0,1-.776-1.183l.517-.3A11.906,11.906,0,0,0,463.22,429.534Z" transform="translate(-420.607 -386.914)"/><path class="c" d="M460.212,440.422a31.242,31.242,0,0,0-1.52,3.239l-.553-.222a31.961,31.961,0,0,1,1.548-3.3Z" transform="translate(-420.974 -411.8)"/><path class="c" d="M463.9,441.022a10.912,10.912,0,0,0-1.909,2.935l-.546-.241a11.536,11.536,0,0,1,2.013-3.1Z" transform="translate(-420.657 -412.623)"/><path class="c" d="M469.413,445.291l.083.591a9.331,9.331,0,0,0-3.287,1.141l-.295-.518a10.052,10.052,0,0,1,2.844-1.1C468.975,445.36,469.2,445.322,469.413,445.291Z" transform="translate(-420.229 -420.807)"/><path class="c" d="M482.116,439.362a6.154,6.154,0,0,1-.993,2.257l-.489-.343a5.569,5.569,0,0,0,.9-2.039,8.152,8.152,0,0,0,.163-1.192l.6.037A8.625,8.625,0,0,1,482.116,439.362Z" transform="translate(-418.819 -407.464)"/><path class="c" d="M477.312,449.8l-.238.547a13.015,13.015,0,0,0-3.394-.935l.082-.591A13.57,13.57,0,0,1,477.312,449.8Z" transform="translate(-419.485 -427.995)"/><path class="c" d="M481.865,447.558l-.56.207a7.906,7.906,0,0,0-1.865-2.907l.42-.424A8.523,8.523,0,0,1,481.865,447.558Z" transform="translate(-418.933 -420.611)"/><path class="c" d="M482.967,424.863c-1.2.359-2.371.652-3.533.88l-.114-.586a35.736,35.736,0,0,0,3.475-.866Z" transform="translate(-418.945 -376.516)"/><path class="c" d="M478.8,435.625a8.069,8.069,0,0,1-3.623.839l.008-.6a7.47,7.47,0,0,0,3.352-.777Z" transform="translate(-419.342 -399.073)"/><path class="c" d="M472.856,423.8a19.089,19.089,0,0,0,3.549.085l.039.6a19.62,19.62,0,0,1-3.661-.089Z" transform="translate(-419.571 -374.772)"/><path class="c" d="M476.913,438.486a6.368,6.368,0,0,1,.005,1.621,3.209,3.209,0,0,1-.962,2l-.408-.435a2.6,2.6,0,0,0,.778-1.644,5.77,5.77,0,0,0-.005-1.467Z" transform="translate(-419.306 -408.439)"/><path class="c" d="M472.643,444.579a6.116,6.116,0,0,1,3.039,1.9l-.449.392a5.521,5.521,0,0,0-2.742-1.719l-.141-.037.145-.579Z" transform="translate(-419.612 -419.837)"/><path class="c" d="M482.785,401.316c-1.122-.366-2.272-.775-3.418-1.216l.215-.557c1.136.437,2.276.844,3.388,1.207Z" transform="translate(-418.94 -324.97)"/><path class="c" d="M457.735,433.991a26.08,26.08,0,0,0-.654,3.508l-.593-.069a26.752,26.752,0,0,1,.67-3.588Z" transform="translate(-421.132 -398.738)"/><path class="c" d="M457.047,429.167c.053.547.124,1.1.21,1.65l-.59.093c-.089-.561-.16-1.128-.215-1.686-.061-.647-.1-1.3-.117-1.948l.6-.014C456.947,427.892,456.986,428.533,457.047,429.167Z" transform="translate(-421.146 -384.938)"/><path class="c" d="M591.311,409.171c.288.028.579.07.859.111.149.021.3.043.447.062a3.893,3.893,0,0,0-.445-.584,3.6,3.6,0,0,0-.333-.3l.371-.467a4.478,4.478,0,0,1,.388.35,4.947,4.947,0,0,1,.57.753c.074.113.149.225.227.333l.147.2-.377.389-.251-.036c-.072-.011-.143-.022-.216-.031-.2-.024-.409-.054-.614-.082-.277-.041-.555-.08-.832-.107Z" transform="translate(-408.221 -342.935)"/><path class="c" d="M600.136,422.828l.518-.294a32.351,32.351,0,0,1,1.621,3.283l-.549.233A32.07,32.07,0,0,0,600.136,422.828Z" transform="translate(-407.37 -374.898)"/><path class="c" d="M600.483,407.048l-.473-.364a19.364,19.364,0,0,0,1.911-3.015l.531.27A19.876,19.876,0,0,1,600.483,407.048Z" transform="translate(-407.382 -335.225)"/><path class="c" d="M588.509,408.943c.193-.041.392-.072.592-.094l.064.593a4.633,4.633,0,0,0-2.987,1.474l-.448-.393A5.119,5.119,0,0,1,588.509,408.943Z" transform="translate(-408.75 -344.767)"/><path class="c" d="M589.586,407.005l-.487.344a4.469,4.469,0,0,1-.666-3.709l.576.153a3.874,3.874,0,0,0,.576,3.212Z" transform="translate(-408.505 -335.493)"/><path class="c" d="M588.678,437.649l-.263.535a35.415,35.415,0,0,0-3.3-1.43l.209-.559A36.175,36.175,0,0,1,588.678,437.649Z" transform="translate(-408.809 -402.002)"/><path class="c" d="M603.1,418.03c-.114-.529-.251-1.072-.407-1.613l.573-.165c.16.554.3,1.11.416,1.654.139.649.25,1.3.328,1.944l-.593.072C603.343,419.3,603.236,418.661,603.1,418.03Z" transform="translate(-407.125 -361.884)"/><path class="c" d="M578.83,438.476a28.772,28.772,0,0,1,3.6.672l-.145.579a28.416,28.416,0,0,0-3.529-.659Z" transform="translate(-409.418 -406.044)"/><path class="c" d="M584.616,402.7l.6,0a5.56,5.56,0,0,0,.122,1.176,5.228,5.228,0,0,0,.919,2.039l-.479.355A5.811,5.811,0,0,1,584.752,404,6.17,6.17,0,0,1,584.616,402.7Z" transform="translate(-408.857 -333.378)"/><path class="c" d="M594.359,434.808l-.346.484c-1.008-.719-2.021-1.388-3.009-1.99l.31-.51C592.315,433.4,593.339,434.079,594.359,434.808Z" transform="translate(-408.245 -395.382)"/><path class="c" d="M591.987,400.611l-.076.592c-.2-.025-.4-.057-.6-.094a11.52,11.52,0,0,1-2.961-.94l.261-.536a10.94,10.94,0,0,0,2.81.89C591.608,400.557,591.8,400.586,591.987,400.611Z" transform="translate(-408.499 -324.954)"/><path class="c" d="M603.983,410.874a18.329,18.329,0,0,1-.484,2.444l-.575-.157a17.456,17.456,0,0,0,.468-2.363c.049-.379.087-.768.112-1.155l.595.039C604.071,410.081,604.033,410.482,603.983,410.874Z" transform="translate(-407.103 -348.039)"/><path class="c" d="M592.093,402a6.136,6.136,0,0,0,3.407-.267l.2.561a6.727,6.727,0,0,1-3.733.289Z" transform="translate(-408.153 -328.784)"/><path class="c" d="M596.543,417.887a10.2,10.2,0,0,0-3.077-1.686l.2-.563a10.818,10.818,0,0,1,3.256,1.785Z" transform="translate(-408.009 -359.177)"/><path class="c" d="M599.7,411.835a8.343,8.343,0,0,1,.516,1.6c.02.093.038.186.055.279l-.587.105c-.015-.087-.032-.173-.05-.26a7.731,7.731,0,0,0-.479-1.48,12.7,12.7,0,0,0-.781-1.5l.51-.311A13.319,13.319,0,0,1,599.7,411.835Z" transform="translate(-407.539 -349.213)"/><path class="c" d="M590.661,417.888l-.049.6a23.057,23.057,0,0,0-3.581-.012l-.042-.6A23.688,23.688,0,0,1,590.661,417.888Z" transform="translate(-408.63 -362.156)"/><path class="c" d="M596.953,428.46c.744.854,1.449,1.743,2.094,2.643l-.484.347c-.634-.884-1.328-1.759-2.06-2.6-.059-.068-.119-.135-.181-.2l.43-.413C596.821,428.311,596.889,428.385,596.953,428.46Z" transform="translate(-407.735 -386.55)"/><path class="c" d="M572.146,439.268a21.319,21.319,0,0,1,3.649-.453l.022.6a20.677,20.677,0,0,0-3.546.439Z" transform="translate(-410.052 -406.539)"/><path class="c" d="M565.534,421.492l-.427.416c-.2-.209-.405-.431-.6-.657a12.732,12.732,0,0,1-1.6-2.32l.526-.282a12.154,12.154,0,0,0,1.522,2.211C565.143,421.078,565.339,421.291,565.534,421.492Z" transform="translate(-410.937 -366.499)"/><path class="c" d="M564.317,431.384a12.606,12.606,0,0,0-1.6,3.15l-.563-.194a13.129,13.129,0,0,1,1.678-3.3Z" transform="translate(-411.009 -392.704)"/><path class="c" d="M561.776,428.229a13.735,13.735,0,0,1-.275-3.69l.595.036a13.123,13.123,0,0,0,.264,3.528Z" transform="translate(-411.074 -379.274)"/><path class="c" d="M594.85,401.3a11.492,11.492,0,0,0,3.216-1.439l.319.5A12.111,12.111,0,0,1,595,401.876Z" transform="translate(-407.876 -325.878)"/><path class="c" d="M597.83,407a7.512,7.512,0,0,0,1.715-3l.572.169a8.11,8.11,0,0,1-1.851,3.243Z" transform="translate(-407.591 -335.937)"/><path class="c" d="M571.031,417.2a12.179,12.179,0,0,1-3.459-1.329l.3-.518a11.544,11.544,0,0,0,3.29,1.265Z" transform="translate(-410.49 -358.177)"/><path class="c" d="M569.444,436.8a13.08,13.08,0,0,0-3.068,1.763l-.366-.47a13.67,13.67,0,0,1,3.205-1.843Z" transform="translate(-410.639 -402.445)"/><path class="c" d="M584.093,417.338c-1.341.236-2.438.455-3.541.716l-.137-.581q.511-.12,1.023-.23c.777-.167,1.611-.328,2.551-.492Z" transform="translate(-409.259 -360.565)"/><path class="c" d="M577.506,415.1l.192.565q-.278.094-.553.194a11.078,11.078,0,0,1-3.046.636l-.038-.6a10.549,10.549,0,0,0,2.881-.6C577.129,415.225,577.317,415.16,577.506,415.1Z" transform="translate(-409.868 -357.186)"/><path class="c" d="M509.3,463.715l-.311-.508a9.587,9.587,0,0,0,2.573-2.3l.47.366A10.168,10.168,0,0,1,509.3,463.715Z" transform="translate(-416.103 -454.609)"/><path class="c" d="M513.819,466.321v-.007c-.007-.182.007-.026-.007-.208l-.6,0a1.147,1.147,0,0,1,.005.212v.007c0,.3-.013.6-.039.9a9.271,9.271,0,0,1-.4,2.009l.571.175a9.7,9.7,0,0,0,.421-2.184A8.308,8.308,0,0,0,513.819,466.321Z" transform="translate(-415.738 -465.997)"/><path class="c" d="M502.8,460.152l.1-.587a9.563,9.563,0,0,0,3.451-.03l.112.586A10.178,10.178,0,0,1,502.8,460.152Z" transform="translate(-416.695 -449.697)"/><path class="c" d="M496.151,469.23a8.653,8.653,0,0,1-.259-.972,9.139,9.139,0,0,1-.182-1.179,8.589,8.589,0,0,1-.032-.9v-.007a1.867,1.867,0,0,1,0-.21h-.6c-.005.114-.005.139-.005.21v.007c0,.3.012.6.038.9a8.941,8.941,0,0,0,.2,1.3,9.316,9.316,0,0,0,.278,1.037Z" transform="translate(-417.435 -465.854)"/><path class="c" d="M497.133,461.2l.465-.374a9.625,9.625,0,0,0,2.611,2.258l-.3.514A10.207,10.207,0,0,1,497.133,461.2Z" transform="translate(-417.238 -454.417)"/><path class="c" d="M612.069,445.93v.007a37.405,37.405,0,0,1-.8,5.009c-1.121,4.874-2.987,9.384-6.558,13.072a24.285,24.285,0,0,1-32.487,1.821,22.642,22.642,0,0,1-8.6-17.511,20.91,20.91,0,0,1,.071-2.391v-.007c.032-.3.065-.6.1-.894v-.007h15.087a.006.006,0,0,1-.007.007c-.161.291-.317.583-.46.894v.007a9.934,9.934,0,1,0,18.114,0v-.007a8.773,8.773,0,0,0-.454-.894.006.006,0,0,1-.007-.007h16.072v.007C612.122,445.333,612.1,445.632,612.069,445.93Z" transform="translate(-410.869 -444.711)"/><path class="c" d="M424.225,458.453V457.8a3.158,3.158,0,0,0,0-5.626v-.648a3.708,3.708,0,0,1,2.235,2.676A3.746,3.746,0,0,1,424.225,458.453Z" transform="translate(-424.223 -439.069)"/><path class="c" d="M452.979,453.76a5.593,5.593,0,1,1,4.3-6.643A5.6,5.6,0,0,1,452.979,453.76Zm3.72-6.519a5,5,0,1,0-3.837,5.936A5,5,0,0,0,456.7,447.241Z" transform="translate(-422.116 -424.824)"/><path class="c" d="M488.324,392.4a3.989,3.989,0,1,1,3.065-4.737A4,4,0,0,1,488.324,392.4Zm2.482-4.613a3.39,3.39,0,1,0-2.606,4.03A3.4,3.4,0,0,0,490.806,387.782Z" transform="translate(-418.544 -299.658)"/><path class="c" d="M492.356,442.794a3.99,3.99,0,1,1,3.073-4.744A3.992,3.992,0,0,1,492.356,442.794Zm2.482-4.614a3.39,3.39,0,1,0-2.6,4.025A3.383,3.383,0,0,0,494.838,438.18Z" transform="translate(-418.157 -405.284)"/><path class="c" d="M514.121,393.688a2.144,2.144,0,1,1,1.652-2.548A2.15,2.15,0,0,1,514.121,393.688Zm1.07-2.417A1.548,1.548,0,1,0,514,393.1,1.552,1.552,0,0,0,515.19,391.271Z" transform="translate(-415.859 -306.328)"/><path class="c" d="M429.438,406.4a2.144,2.144,0,1,1,1.646-2.547A2.147,2.147,0,0,1,429.438,406.4Zm1.063-2.423a1.548,1.548,0,1,0-1.193,1.84A1.553,1.553,0,0,0,430.5,403.976Z" transform="translate(-423.972 -332.967)"/><path class="c" d="M556.773,414.087a2.147,2.147,0,1,1,1.647-2.547A2.146,2.146,0,0,1,556.773,414.087Zm1.063-2.424a1.548,1.548,0,1,0-1.192,1.834A1.557,1.557,0,0,0,557.836,411.663Z" transform="translate(-411.773 -349.073)"/><path class="c" d="M568.235,448.069a2.145,2.145,0,1,1,1.646-2.547A2.146,2.146,0,0,1,568.235,448.069Zm1.056-2.417a1.548,1.548,0,1,0-3.027.648,1.548,1.548,0,0,0,3.027-.648Z" transform="translate(-410.675 -420.3)"/><path class="c" d="M478.246,462.506a2.144,2.144,0,1,1,1.647-2.541A2.152,2.152,0,0,1,478.246,462.506Zm1.063-2.424a1.548,1.548,0,1,0-1.186,1.84A1.551,1.551,0,0,0,479.309,460.082Z" transform="translate(-419.296 -450.555)"/><path class="c" d="M528.251,434.429a3.5,3.5,0,1,1,2.683-4.154A3.5,3.5,0,0,1,528.251,434.429Zm2.1-4.03a2.9,2.9,0,1,0-2.229,3.447A2.912,2.912,0,0,0,530.351,430.4Z" transform="translate(-414.662 -388.805)"/><path class="c" d="M554.409,428.421a3.5,3.5,0,1,1,2.689-4.154A3.5,3.5,0,0,1,554.409,428.421Zm2.106-4.025a2.9,2.9,0,1,0-2.229,3.442A2.9,2.9,0,0,0,556.515,424.4Z" transform="translate(-412.156 -376.219)"/><path class="c" d="M452.92,414.144a2.684,2.684,0,1,1-.8-3.714A2.681,2.681,0,0,1,452.92,414.144ZM451.8,410.93a2.088,2.088,0,1,0-2.268,3.505,2.043,2.043,0,0,0,1.575.285,2.085,2.085,0,0,0,.694-3.79Z" transform="translate(-421.947 -350.485)"/><path class="c" d="M520.379,446.771a4.785,4.785,0,1,1,3.682-5.684A4.8,4.8,0,0,1,520.379,446.771Zm3.1-5.56a4.189,4.189,0,1,0-3.221,4.977A4.205,4.205,0,0,0,523.477,441.211Z" transform="translate(-415.565 -411.912)"/><path class="c" d="M519.5,443.6a1.809,1.809,0,1,1,1.386-2.151A1.806,1.806,0,0,1,519.5,443.6Zm.8-2.022a1.21,1.21,0,1,0-.927,1.439A1.213,1.213,0,0,0,520.3,441.578Z" transform="translate(-415.305 -411.65)"/><path class="c" d="M543.421,380.69a4.785,4.785,0,1,1,3.681-5.684A4.792,4.792,0,0,1,543.421,380.69Zm3.1-5.555a4.192,4.192,0,1,0-3.221,4.977A4.194,4.194,0,0,0,546.518,375.135Z" transform="translate(-413.358 -273.422)"/><path class="c" d="M542.538,377.515a1.806,1.806,0,1,1,1.386-2.144A1.81,1.81,0,0,1,542.538,377.515Zm.81-2.022a1.217,1.217,0,0,0-1.439-.927,1.21,1.21,0,1,0,.505,2.366A1.217,1.217,0,0,0,543.348,375.493Z" transform="translate(-413.098 -273.158)"/><path class="c" d="M760.985,430.358a35.87,35.87,0,0,1-7.5,14.484,32.3,32.3,0,0,1-16.474,9.986,12.946,12.946,0,0,1-3.279.564,18.019,18.019,0,0,1-12.832-4.919,16.733,16.733,0,0,1-5.062-8.638,10.173,10.173,0,0,1,4.711-10.687,8.169,8.169,0,0,1,7.563-.247,8.278,8.278,0,0,1,4.944,5.866,8.105,8.105,0,0,1,.1,1.581c0,.233-.007.472.007.7l.007.253-.629.136-.239-.22c-.1-.084-.188-.169-.286-.252-.265-.227-.531-.46-.79-.7a20.879,20.879,0,0,0-1.8-1.484,3.253,3.253,0,0,0-4.141-.149,6.752,6.752,0,0,0-2,8.618,10.621,10.621,0,0,0,7.5,5.451,12.843,12.843,0,0,0,9.89-1.964,13.2,13.2,0,0,0,5.625-8.7c1.25-7.122-1.037-13.208-6.8-18.094a45.275,45.275,0,0,0-11.056-6.688,79.89,79.89,0,0,0-13.181-4.737,18.953,18.953,0,0,1-6.118-2.735,21.535,21.535,0,0,1-9.624-15.8,23.073,23.073,0,0,1,18.011-25.048c4.251-.869,8.625-.422,13.771,1.413a36.5,36.5,0,0,1,9.779,5.275,47.46,47.46,0,0,1,7.239,6.772,67.343,67.343,0,0,1,12.281,21.361c.137.35.273.7.409,1.056a37.47,37.47,0,0,1,1.666,6.539A49.52,49.52,0,0,1,760.985,430.358Zm1.089-20.933a37.944,37.944,0,0,0-1.634-6.4c-.136-.356-.272-.712-.408-1.063a66.876,66.876,0,0,0-12.171-21.172c-5.087-5.793-10.577-9.676-16.771-11.885-5.036-1.789-9.313-2.23-13.448-1.387a22.452,22.452,0,0,0-17.536,24.394,20.921,20.921,0,0,0,8.4,14.691c.311.233.636.466.965.687a18.146,18.146,0,0,0,5.924,2.644,81.215,81.215,0,0,1,13.285,4.776,46.081,46.081,0,0,1,11.191,6.772c5.943,5.036,8.3,11.309,7.012,18.658A13.8,13.8,0,0,1,741,449.229a13.369,13.369,0,0,1-10.343,2.055,11.163,11.163,0,0,1-7.9-5.749,7.342,7.342,0,0,1,2.177-9.383,3.833,3.833,0,0,1,4.835.142,20.383,20.383,0,0,1,1.854,1.53c.259.233.518.466.784.693l.156.137v-.3a8.322,8.322,0,0,0-.084-1.472,7.689,7.689,0,0,0-4.608-5.431,7.562,7.562,0,0,0-7.005.214,9.573,9.573,0,0,0-4.439,10.058,16.154,16.154,0,0,0,4.9,8.328c3.221,3.136,7.285,4.691,12.411,4.744a11.9,11.9,0,0,0,3.136-.545,31.7,31.7,0,0,0,16.17-9.792,35.322,35.322,0,0,0,7.368-14.258A48.928,48.928,0,0,0,762.075,409.425Z" transform="translate(-397.866 -342.843)"/><path class="c" d="M717.483,363.278a21.843,21.843,0,0,1-7.1,8.645,36.19,36.19,0,0,1-11.865,5.735c-.188.058-.382.111-.577.175a16,16,0,0,1-3.227.6,28.111,28.111,0,0,1-11.5-1.652,19.306,19.306,0,0,1-7.466-4.569,17.323,17.323,0,0,1-4.725-9.221,6.944,6.944,0,0,1-.168-1.8A9.743,9.743,0,0,1,674,354.465a8.981,8.981,0,0,1,4.854-2.392,5.551,5.551,0,0,1,5.644,2.982,4.481,4.481,0,0,1-.162,4.161,4.528,4.528,0,0,1-3.409,2.482,4.384,4.384,0,0,1-.875-.013c-.124-.007-.247-.02-.37-.02l-.245-.013-.071-.525.174-.168c.046-.046.1-.091.142-.137.137-.136.273-.265.4-.4a12.017,12.017,0,0,0,.849-.882,1.591,1.591,0,0,0,.227-2.035,3.448,3.448,0,0,0-4.329-1.341,5.5,5.5,0,0,0-3.1,3.687,6.677,6.677,0,0,0,.655,5.224,6.924,6.924,0,0,0,4.323,3.26,9.637,9.637,0,0,0,9.746-2.9,23.98,23.98,0,0,0,3.954-5.586,42.183,42.183,0,0,0,3.007-6.8,10.3,10.3,0,0,1,1.711-3.2,11.6,11.6,0,0,1,8.873-4.563,12.113,12.113,0,0,1,7.893,2.45,12.28,12.28,0,0,1,4.88,8.2A13.521,13.521,0,0,1,717.483,363.278Zm.694-7.272a11.834,11.834,0,0,0-12.158-10.123,11.05,11.05,0,0,0-8.431,4.336,9.672,9.672,0,0,0-1.608,3.007,42.844,42.844,0,0,1-3.052,6.9,24.531,24.531,0,0,1-4.05,5.729,10.2,10.2,0,0,1-10.318,3.052,7.774,7.774,0,0,1-2.7-1.277,7.626,7.626,0,0,1-2-2.262,7.308,7.308,0,0,1-.713-5.684,6.1,6.1,0,0,1,3.435-4.07,4.05,4.05,0,0,1,5.08,1.563,2.166,2.166,0,0,1-.272,2.727,9.48,9.48,0,0,1-.894.94c-.084.084-.169.169-.26.253a2.944,2.944,0,0,0,.622,0,3.934,3.934,0,0,0,2.949-2.165,3.876,3.876,0,0,0,.156-3.6,4.955,4.955,0,0,0-5.036-2.669,8.462,8.462,0,0,0-4.536,2.249,9.013,9.013,0,0,0-2.955,6.325,6.1,6.1,0,0,0,.175,1.652,16.69,16.69,0,0,0,4.549,8.9,18.7,18.7,0,0,0,7.245,4.426,27.617,27.617,0,0,0,11.264,1.627,15.95,15.95,0,0,0,3.091-.577c.194-.065.4-.123.59-.174a35.557,35.557,0,0,0,11.671-5.644,21.221,21.221,0,0,0,6.909-8.406A12.961,12.961,0,0,0,718.177,356.007Z" transform="translate(-400.597 -242.667)"/><path class="c" d="M596.129,375.163a19.4,19.4,0,0,0,1.409-1.569l.276.221a19.561,19.561,0,0,1-1.434,1.6Z" transform="translate(-407.754 -270.635)"/><path class="c" d="M584.483,376.513l.057.011-.068.348-.045-.009a2.12,2.12,0,0,0-1.764.554l-.245-.256a2.457,2.457,0,0,1,1.181-.623A2.424,2.424,0,0,1,584.483,376.513Z" transform="translate(-409.068 -275.804)"/><path class="c" d="M590.152,374.67l.355,0a6.67,6.67,0,0,1-.314,2.155l-.338-.111A6.3,6.3,0,0,0,590.152,374.67Z" transform="translate(-408.355 -273.215)"/><path class="c" d="M582.944,371.187a4.438,4.438,0,0,1-.805-.558l.243-.259a4.248,4.248,0,0,0,.748.514c.341.2.687.381,1.03.539l-.149.322A12.044,12.044,0,0,1,582.944,371.187Z" transform="translate(-409.094 -263.434)"/><path class="c" d="M591.711,370.025a11.473,11.473,0,0,1-1.988.626l-.076.015-.072-.347.072-.015a11.021,11.021,0,0,0,1.926-.606Z" transform="translate(-408.382 -261.615)"/><path class="c" d="M596.872,391.884l-.131-.085.19-.3.139.09a6.816,6.816,0,0,1,1.491,1.352l-.273.226A6.523,6.523,0,0,0,596.872,391.884Z" transform="translate(-407.695 -308.006)"/><path class="c" d="M581.86,376.808l.229.271a2.9,2.9,0,0,0-.54.609,4.414,4.414,0,0,0-.519,1.092l-.339-.107a4.761,4.761,0,0,1,.562-1.181A3.175,3.175,0,0,1,581.86,376.808Z" transform="translate(-409.233 -277.522)"/><path class="c" d="M585.7,379.162l-.258.244a2.09,2.09,0,0,0-1.011-.6,2.951,2.951,0,0,0-.781-.084l-.008-.355a3.367,3.367,0,0,1,.873.094A2.441,2.441,0,0,1,585.7,379.162Z" transform="translate(-408.95 -279.851)"/><path class="c" d="M582.122,373.6a3.635,3.635,0,0,0,.517,1.213l.01.014-.3.194-.01-.016a3.983,3.983,0,0,1-.566-1.33,3.444,3.444,0,0,1-.077-.756l.355,0A3.082,3.082,0,0,0,582.122,373.6Z" transform="translate(-409.136 -269.493)"/><path class="c" d="M599.176,388.272l.318-.158c.045.09.089.181.132.272a11.536,11.536,0,0,1,.653,1.74l-.341.1a11.222,11.222,0,0,0-.633-1.686C599.263,388.448,599.22,388.36,599.176,388.272Z" transform="translate(-407.462 -301.354)"/><path class="c" d="M586.863,387.358c-.01-.049-.021-.1-.03-.147a7.591,7.591,0,0,1-.137-1.53l.355.005a7.185,7.185,0,0,0,.13,1.457c.009.046.019.093.029.139.033.152.071.3.115.454l-.34.1C586.938,387.681,586.9,387.519,586.863,387.358Z" transform="translate(-408.658 -296.302)"/><path class="c" d="M585.715,369.845l.079-.346a9.428,9.428,0,0,0,2.072.242l0,.355A9.854,9.854,0,0,1,585.715,369.845Z" transform="translate(-408.752 -260.828)"/><path class="c" d="M583.944,371.114a4.106,4.106,0,0,0,1.968.459l.007.355a4.447,4.447,0,0,1-2.138-.5Z" transform="translate(-408.937 -264.431)"/><path class="c" d="M588.736,384.239c-.3-.7-.607-1.326-.924-1.9l.311-.171c.322.584.629,1.215.938,1.93Z" transform="translate(-408.551 -288.854)"/><path class="c" d="M588.087,389.5l.285.211a7.114,7.114,0,0,0-.987,1.82l-.334-.119A7.444,7.444,0,0,1,588.087,389.5Z" transform="translate(-408.624 -304.172)"/><path class="c" d="M589.4,393.484a7.313,7.313,0,0,1,1.933-1l.114.336a6.917,6.917,0,0,0-1.839.949Z" transform="translate(-408.398 -309.695)"/><path class="c" d="M600.585,384.3a15.1,15.1,0,0,1,.067,2.153l-.355-.013a14.854,14.854,0,0,0-.065-2.1Z" transform="translate(-407.361 -293.413)"/><path class="c" d="M581.328,374.974l-.319.158a5.37,5.37,0,0,1-.553-2.116l.355-.019a4.942,4.942,0,0,0,.517,1.977Z" transform="translate(-409.255 -269.697)"/><path class="c" d="M588.038,373.055c-.116.079-.236.154-.357.225l-.175-.309c.112-.065.224-.134.33-.207a6.478,6.478,0,0,0,1.244-1.119l.272.23A6.886,6.886,0,0,1,588.038,373.055Z" transform="translate(-408.58 -266.364)"/><path class="c" d="M589.7,378.525a16.085,16.085,0,0,1,.59,2.043l.007.026-.347.073-.005-.025a15.751,15.751,0,0,0-.577-2Z" transform="translate(-408.402 -281.29)"/><path class="c" d="M599.7,382.5a19.367,19.367,0,0,0,.446-2.062l.351.056a19.791,19.791,0,0,1-.454,2.1Z" transform="translate(-407.412 -285.306)"/><path class="c" d="M585.617,376.629c-.053.052-.1.1-.154.156l-.1.108-.265-.172-.008-.148c0-.038,0-.078-.007-.116-.008-.111-.014-.222-.02-.334l-.005-.111.354-.019.007.111c0,.07.007.141.011.211a2,2,0,0,0,.242-.276,2.146,2.146,0,0,0,.363-1.237h.355a2.507,2.507,0,0,1-.425,1.44A2.8,2.8,0,0,1,585.617,376.629Z" transform="translate(-408.815 -273.435)"/><path class="c" d="M598.672,378.869l-.323-.146.061-.135c.284-.616.54-1.227.762-1.817l.333.125c-.226.6-.485,1.217-.773,1.84Z" transform="translate(-407.541 -277.571)"/><path class="c" d="M593.106,372.375a17.353,17.353,0,0,0,1.735-1.2l.219.278a17.706,17.706,0,0,1-1.77,1.223Z" transform="translate(-408.043 -265.251)"/><path class="c" d="M593.132,393.857l-.014-.354a7.382,7.382,0,0,1,2.163.231l-.09.343A7.083,7.083,0,0,0,593.132,393.857Z" transform="translate(-408.042 -311.106)"/><path class="c" d="M664.707,324.769l-.09.59a4.8,4.8,0,0,0-1.368-.011,7.4,7.4,0,0,0-1.957.548l-.238-.547a7.98,7.98,0,0,1,2.116-.592A5.385,5.385,0,0,1,664.707,324.769Z" transform="translate(-401.534 -167.546)"/><path class="c" d="M656.445,315.528c.124.651.276,1.29.456,1.9l-.573.169c-.184-.628-.342-1.286-.471-1.969a7.5,7.5,0,0,1-.184-1.636l.6.022A7.084,7.084,0,0,0,656.445,315.528Z" transform="translate(-402.05 -147.5)"/><path class="c" d="M662.276,304.25a18.743,18.743,0,0,0,2.9,1.77l-.264.535a19.415,19.415,0,0,1-2.987-1.826l-.1-.079.361-.474Z" transform="translate(-401.461 -125.706)"/><path class="c" d="M664.145,318.44c-.123-.01-.245-.019-.368-.023l-.249-.009-.076-.526.177-.171c.048-.046.1-.091.14-.137.137-.139.277-.274.416-.41l.119-.115.415.427-.119.116c-.09.088-.18.174-.27.263a3.514,3.514,0,0,0,.617,0,3.61,3.61,0,0,0,1.966-.907l.394.447a4.193,4.193,0,0,1-2.292,1.052A4.626,4.626,0,0,1,664.145,318.44Z" transform="translate(-401.304 -151.615)"/><path class="c" d="M664.465,322.017h0a3.526,3.526,0,0,0-1.789-.689l.055-.594a4.12,4.12,0,0,1,2.092.805h0a4.056,4.056,0,0,1,1.007,1.089q.028.043.053.085l-.517.3q-.018-.033-.039-.066A3.459,3.459,0,0,0,664.465,322.017Z" transform="translate(-401.379 -160.307)"/><path class="c" d="M671.319,303.012l-.112.585a29.958,29.958,0,0,1-3.5-.889l.182-.569A29.262,29.262,0,0,0,671.319,303.012Z" transform="translate(-400.897 -120.517)"/><path class="c" d="M660.027,311.073l-.451.389a16.513,16.513,0,0,1-2.058-3l.526-.282A15.926,15.926,0,0,0,660.027,311.073Z" transform="translate(-401.873 -135.002)"/><path class="c" d="M657.514,321.425a9.059,9.059,0,0,1,.959-1.087l.414.428a8.6,8.6,0,0,0-.9,1.016,8.509,8.509,0,0,0-1.036,1.822l-.55-.229A9.058,9.058,0,0,1,657.514,321.425Z" transform="translate(-401.979 -160.466)"/><path class="c" d="M659.887,315.425l-.442.4a7.478,7.478,0,0,1-1.73-3.258l.578-.14A6.9,6.9,0,0,0,659.887,315.425Z" transform="translate(-401.854 -144.019)"/><path class="c" d="M659.712,318.625l.389.453a5.239,5.239,0,0,0-.781.837,6.091,6.091,0,0,0-.961,1.984l-.009.033-.288-.076-.278-.113a6.674,6.674,0,0,1,1.059-2.186A5.843,5.843,0,0,1,659.712,318.625Z" transform="translate(-401.847 -156.916)"/><path class="c" d="M662.1,310.616l.2-.562c.2.071.416.135.627.187a10.786,10.786,0,0,0,2.79.341l.01.6a11.352,11.352,0,0,1-2.945-.358C662.55,310.763,662.322,310.694,662.1,310.616Z" transform="translate(-401.434 -136.771)"/><path class="c" d="M690.045,305.156a33.444,33.444,0,0,1-3.159,1.746l-.261-.537a32.742,32.742,0,0,0,3.1-1.714Z" transform="translate(-399.084 -126.573)"/><path class="c" d="M687.766,331.274a11.908,11.908,0,0,0-3.394.762l-.218-.556a12.477,12.477,0,0,1,3.565-.8Z" transform="translate(-399.321 -180.228)"/><path class="c" d="M694.675,308.159l.437.405a25.664,25.664,0,0,1-2.651,2.463l-.375-.465A24.889,24.889,0,0,0,694.675,308.159Z" transform="translate(-398.561 -134.543)"/><path class="c" d="M668.471,312.621a10.628,10.628,0,0,0,2.911-1.879l.4.445a11.2,11.2,0,0,1-3.076,1.983Z" transform="translate(-400.823 -139.516)"/><path class="c" d="M683.942,302.334l.208.559c-1.008.377-2.079.732-3.183,1.056l-.233.069-.172-.57.239-.072C681.889,303.057,682.945,302.707,683.942,302.334Z" transform="translate(-399.665 -121.151)"/><path class="c" d="M694.144,331.328l-.3.516a11.621,11.621,0,0,0-3.233-1.28l.134-.582A12.27,12.27,0,0,1,694.144,331.328Z" transform="translate(-398.702 -179.273)"/><path class="c" d="M675.193,315.013l.521.291a26.992,26.992,0,0,1-1.933,3l-.026.036-.478-.357.026-.036A26.3,26.3,0,0,0,675.193,315.013Z" transform="translate(-400.363 -149.369)"/><path class="c" d="M676.513,323.973c.554-1.163,1.008-2.232,1.385-3.268l.56.2c-.384,1.054-.844,2.14-1.407,3.32Z" transform="translate(-400.053 -161.492)"/><path class="c" d="M679.713,328.537a12.836,12.836,0,0,1,1.785-1.863l.386.456a12.089,12.089,0,0,0-1.7,1.775l-.146.19c-.157.21-.307.427-.445.648l-.505-.319c.148-.233.307-.464.472-.686Z" transform="translate(-399.806 -173.546)"/><path class="c" d="M677.755,301.694l.024.6a32.675,32.675,0,0,1-3.61-.049l.042-.6A32.025,32.025,0,0,0,677.755,301.694Z" transform="translate(-400.277 -118.697)"/><path class="c" d="M667.4,320.945a5.586,5.586,0,0,1,.846,1.209,4.105,4.105,0,0,1,.417,2.278l-.593-.056a3.514,3.514,0,0,0-.355-1.948,5.03,5.03,0,0,0-.755-1.08Z" transform="translate(-400.968 -161.958)"/><path class="c" d="M698.876,319.488c-.011-.087-.023-.173-.037-.26l.59-.092c.014.091.027.183.039.275a11.508,11.508,0,0,1-.064,3.383l-.589-.1A10.934,10.934,0,0,0,698.876,319.488Z" transform="translate(-397.916 -158.338)"/><path class="c" d="M698.581,328.4l-.534.266a11.84,11.84,0,0,0-2-2.849l.434-.41A12.432,12.432,0,0,1,698.581,328.4Z" transform="translate(-398.181 -171.088)"/><path class="c" d="M698.06,313.014l.551.228q-.1.233-.2.467a19.464,19.464,0,0,1-1.483,2.749l-.5-.324a18.827,18.827,0,0,0,1.437-2.665Q697.966,313.242,698.06,313.014Z" transform="translate(-398.145 -145.294)"/><path class="c" d="M759.467,468.263a9.562,9.562,0,0,0,2.235,1.192,26.044,26.044,0,0,0,11.8,2.2c.065,0,.136-.007.2-.013v.6c-.065,0-.136.007-.2.007A26.585,26.585,0,0,1,761.463,470a9.865,9.865,0,0,1-2.365-1.27,14.5,14.5,0,0,1-5.716-9.494,13.464,13.464,0,0,1,1.068-8,8.213,8.213,0,0,1,8.322-4.472,6.621,6.621,0,0,1,4.964,3.61,6.717,6.717,0,0,1,.233,6.215,6.886,6.886,0,0,1-.732,1.063c-.117.142-.227.291-.337.441l-.149.2-.538-.252-.052-.292a2.341,2.341,0,0,0-.058-.3c-.052-.279-.1-.558-.149-.836a15.724,15.724,0,0,0-.4-1.821,2.542,2.542,0,0,0-2.5-2.106,5.371,5.371,0,0,0-5.469,4.419,8.469,8.469,0,0,0,2.042,7.11,10.243,10.243,0,0,0,7.2,3.629,10.465,10.465,0,0,0,6.682-1.828,2.459,2.459,0,0,0,.2-.142v.725c-.065.046-.129.091-.2.136a11.068,11.068,0,0,1-6.727,1.705,10.89,10.89,0,0,1-5.8-2.139,10.663,10.663,0,0,1-1.808-1.7,9.018,9.018,0,0,1-2.171-7.59,5.966,5.966,0,0,1,6.072-4.925,3.145,3.145,0,0,1,3.053,2.52,16.484,16.484,0,0,1,.414,1.892c.052.278.1.558.156.829,0,.013.007.02.007.033.026-.033.052-.059.071-.084a5.066,5.066,0,0,0,.661-.972,6.466,6.466,0,0,0-4.724-8.957,7.636,7.636,0,0,0-7.719,4.141,12.92,12.92,0,0,0-1.017,7.667A13.767,13.767,0,0,0,759.467,468.263Zm14.037-31.3c-.44-.732-.907-1.49-1.4-2.249a.006.006,0,0,0-.007-.007c-.187-.3-.394-.6-.59-.894a.006.006,0,0,1-.007-.007h.72a.006.006,0,0,0,.007.007c.194.3.394.6.583.894v.007c.233.369.473.732.694,1.1.071.111.136.227.2.338v1.166C773.64,437.208,773.576,437.091,773.5,436.968Z" transform="translate(-392.705 -433.494)"/><path class="c" d="M710.538,468.578a19.461,19.461,0,0,1-10.492,2.288,31.5,31.5,0,0,1-15.43-4.777,52,52,0,0,1-14.18-12.754c-.182-.22-.369-.447-.551-.674a16.719,16.719,0,0,1-2.235-3.207v-.007c-.007-.013-.013-.033-.02-.045-.136-.286-.272-.564-.4-.849v-.007h.654v.007c.084.2.182.4.279.6.045.1.1.2.149.3v.007a18.567,18.567,0,0,0,2.028,2.832c.187.227.376.454.558.687a55.57,55.57,0,0,0,10.1,9.994,44.924,44.924,0,0,0,3.908,2.611,30.911,30.911,0,0,0,15.152,4.692,18.956,18.956,0,0,0,10.181-2.21,17.365,17.365,0,0,0,8.166-18.606v-.007c-.072-.3-.15-.6-.233-.894v-.007h.621v.007c.078.3.149.59.215.894v.007A17.97,17.97,0,0,1,710.538,468.578Z" transform="translate(-400.942 -448.229)"/><path class="c" d="M667.588,453.068a19.086,19.086,0,0,1-5.042,8.345,31.715,31.715,0,0,1-9.567,6.473,12.957,12.957,0,0,1-2.7,1.068,26.878,26.878,0,0,1-10.636.089,16.936,16.936,0,0,1-7-3,14.974,14.974,0,0,1-5.2-7.327,5.864,5.864,0,0,1-.37-1.488,8.3,8.3,0,0,1,1.835-6.094,7.764,7.764,0,0,1,3.813-2.629,4.655,4.655,0,0,1,5.029,1.792,3.973,3.973,0,0,1-2.13,5.85,7.22,7.22,0,0,1-1.05.122l-.032-.108c.054-.07.108-.139.16-.209.319-.433.673-.844.945-1.3a1.662,1.662,0,0,0-.084-2.114,3.336,3.336,0,0,0-4.3-.672,5.134,5.134,0,0,0-2.365,3.808,6.314,6.314,0,0,0,5.668,7.078,8.736,8.736,0,0,0,8.393-3.875,21.434,21.434,0,0,0,2.778-5.454,37.161,37.161,0,0,0,1.781-6.378,8.789,8.789,0,0,1,1.056-2.922,9.977,9.977,0,0,1,7-4.993,10.7,10.7,0,0,1,12.219,7.5A11.771,11.771,0,0,1,667.588,453.068Z" transform="translate(-404.792 -436.347)"/><path class="c" d="M648.521,408.657c-.045.291-.091.577-.136.869a46.678,46.678,0,0,1-5.767,17.245,31.553,31.553,0,0,1-10.972,12,19.538,19.538,0,0,1-10.272,3.351,18,18,0,0,1-17.88-16.131,16.833,16.833,0,0,1,4.725-13.655,15.065,15.065,0,0,1,4.225-3.1,61.894,61.894,0,0,0,9.221-5.768,35.173,35.173,0,0,0,7.292-6.889c3.565-4.646,4.3-9.63,2.184-14.808a10.192,10.192,0,0,0-5.671-5.658,9.929,9.929,0,0,0-7.8.136,8.169,8.169,0,0,0-4.762,5.333,5.182,5.182,0,0,0,2.909,6.151,2.456,2.456,0,0,0,3.046-.791,14.269,14.269,0,0,0,1.114-1.419q.243-.33.485-.661c.065-.078.117-.156.175-.233l.169-.24.59.007.045.247c.033.174.071.35.111.531a6.853,6.853,0,0,1,.187,1.231,6.488,6.488,0,0,1-2.818,5.328,6.415,6.415,0,0,1-5.846,1.068,7.983,7.983,0,0,1-5.391-7.413,13.084,13.084,0,0,1,2.437-7.441,14.051,14.051,0,0,1,8.981-5.871,9.721,9.721,0,0,1,2.606-.116,25.148,25.148,0,0,1,14.2,4.886.023.023,0,0,1,.013.007,28.17,28.17,0,0,1,8.095,9.792,35.6,35.6,0,0,1,4.53,15.087A50.393,50.393,0,0,1,648.521,408.657Zm-.563-6.876a34.985,34.985,0,0,0-4.465-14.866,27.368,27.368,0,0,0-7.919-9.585.023.023,0,0,0-.013-.007,24.571,24.571,0,0,0-13.882-4.77,9.23,9.23,0,0,0-2.443.1,13.325,13.325,0,0,0-8.613,5.631,12.461,12.461,0,0,0-2.34,7.1,7.24,7.24,0,0,0,2.969,5.767,7.459,7.459,0,0,0,2.022,1.083,5.83,5.83,0,0,0,5.3-.985,5.927,5.927,0,0,0,2.58-4.835,6.544,6.544,0,0,0-.181-1.114c-.007-.033-.013-.065-.02-.091-.007.007-.007.007-.007.013-.162.214-.324.434-.48.648a16.79,16.79,0,0,1-1.159,1.478,3.056,3.056,0,0,1-3.733.921,5.774,5.774,0,0,1-3.234-6.851,8.743,8.743,0,0,1,5.094-5.716,10.5,10.5,0,0,1,8.256-.142,10.764,10.764,0,0,1,6,5.975c2.2,5.4,1.444,10.577-2.262,15.4a35.575,35.575,0,0,1-7.408,7.005,63.161,63.161,0,0,1-9.32,5.825,14.241,14.241,0,0,0-4.05,2.975,16.259,16.259,0,0,0-4.568,13.188,17.412,17.412,0,0,0,17.283,15.592,19.037,19.037,0,0,0,9.967-3.266A31.143,31.143,0,0,0,642.1,426.486a46.444,46.444,0,0,0,5.7-17.044c.038-.291.084-.583.129-.876A49.559,49.559,0,0,0,647.957,401.781Z" transform="translate(-407.056 -335.51)"/><path class="c" d="M756.664,451.347v.007a30.144,30.144,0,0,1-1.219,4.27,10.247,10.247,0,0,1-1.205,2.126c-.1.149-.2.3-.3.447a32.175,32.175,0,0,1-7.984,8.6,19.441,19.441,0,0,1-9.2,3.778,11.934,11.934,0,0,1-6.552-.823,11.016,11.016,0,0,1-5.7-13.584,10.475,10.475,0,0,1,3.454-4.815l.007-.007a9.278,9.278,0,0,1,1.4-.894c.007,0,.007-.007.013-.007h.816c-.007,0-.007.007-.013.007a9.9,9.9,0,0,0-1.588.894.006.006,0,0,1-.007.007,10.07,10.07,0,0,0-3.745,4.944,10.65,10.65,0,0,0,5.509,13.123,11.624,11.624,0,0,0,6.364.791,19,19,0,0,0,9.021-3.714,31.857,31.857,0,0,0,7.893-8.5c.1-.149.2-.3.3-.454A9.856,9.856,0,0,0,755.1,455.5a28.122,28.122,0,0,0,1.2-4.148v-.007c.053-.3.117-.6.162-.894v-.007h.369v.007C756.781,450.751,756.723,451.049,756.664,451.347Z" transform="translate(-395.515 -450.129)"/><path class="c" d="M676.381,430.645c.076.075.15.148.228.22.221.2.438.416.655.628l.291.284-.413.428-.295-.285c-.214-.208-.426-.416-.645-.618l-.059-.057-.008.163a7.639,7.639,0,0,0,0,1.132l-.593.065a8.153,8.153,0,0,1-.008-1.224c.01-.2.019-.4.02-.6v-.249l.6-.105Z" transform="translate(-400.148 -390.105)"/><path class="c" d="M666.907,440.168l.267.533a26.238,26.238,0,0,0-3.073,1.814l-.339-.491A26.743,26.743,0,0,1,666.907,440.168Z" transform="translate(-401.274 -410.685)"/><path class="c" d="M680.457,414.134c-.649-.306-1.323-.631-2.059-.995q-.6-.3-1.192-.606l.276-.529q.587.307,1.181.6c.732.362,1.4.686,2.048.991Z" transform="translate(-399.986 -351.443)"/><path class="c" d="M666.413,385.142c-.881-.785-1.755-1.64-2.6-2.546l.436-.407c.833.891,1.694,1.735,2.561,2.507Z" transform="translate(-401.27 -289.781)"/><path class="c" d="M664.558,434.891a19.488,19.488,0,0,1,.359-2.235,11.941,11.941,0,0,1,.382-1.362l.563.194a11.8,11.8,0,0,0-.364,1.3,19.059,19.059,0,0,0-.347,2.167Z" transform="translate(-401.198 -393.396)"/><path class="c" d="M686.492,425.284a8.676,8.676,0,0,1-1.079.709,6.147,6.147,0,0,1-2.354.736l-.062-.593a5.594,5.594,0,0,0,2.127-.664,8.233,8.233,0,0,0,1-.662Z" transform="translate(-399.432 -378.073)"/><path class="c" d="M687.477,377.088a18.405,18.405,0,0,0,3.287-1.337l.276.528a18.973,18.973,0,0,1-3.394,1.381Z" transform="translate(-399.002 -275.243)"/><path class="c" d="M686.583,411.319c-1.1-.384-2.21-.81-3.389-1.3l.231-.55c1.167.489,2.264.911,3.353,1.29Z" transform="translate(-399.413 -345.847)"/><path class="c" d="M661.838,390.291c-.745-.937-1.469-1.922-2.152-2.927l.493-.335c.675.993,1.389,1.966,2.126,2.892Z" transform="translate(-401.665 -300.233)"/><path class="c" d="M699.582,400.245a18.569,18.569,0,0,0-1.06-3.388l.549-.232a19.086,19.086,0,0,1,1.094,3.5Z" transform="translate(-397.944 -320.7)"/><path class="c" d="M695.768,378.833l.449.393a20.181,20.181,0,0,1-2.653,2.524l-.37-.467A19.637,19.637,0,0,0,695.768,378.833Z" transform="translate(-398.455 -282.71)"/><path class="c" d="M689.626,407.014a16.255,16.255,0,0,1,3.283,1.644l-.324.5a15.706,15.706,0,0,0-3.164-1.585Z" transform="translate(-398.816 -341)"/><path class="c" d="M697.648,405.321l-.489.342a17.905,17.905,0,0,0-2.315-2.687l.413-.432A18.554,18.554,0,0,1,697.648,405.321Z" transform="translate(-398.297 -332.605)"/><path class="c" d="M665.479,428.383a15.081,15.081,0,0,1-.891-3.566l.592-.073a14.5,14.5,0,0,0,.856,3.424Z" transform="translate(-401.195 -379.653)"/><path class="c" d="M686.947,435.464l.5-.327a13.541,13.541,0,0,1,1.6,3.317l-.569.181A13.009,13.009,0,0,0,686.947,435.464Z" transform="translate(-399.053 -401.293)"/><path class="c" d="M676.945,425.718l.454-.387a7.471,7.471,0,0,0,2.79,2.014l-.23.55A8.055,8.055,0,0,1,676.945,425.718Z" transform="translate(-400.012 -379.808)"/><path class="c" d="M700.267,393.743l-.588-.1a18.031,18.031,0,0,0,.229-3.541l.6-.021A18.632,18.632,0,0,1,700.267,393.743Z" transform="translate(-397.833 -307.033)"/><path class="c" d="M688.432,432.307l-.524-.286a7.939,7.939,0,0,0,.964-3.317l.595.037A8.505,8.505,0,0,1,688.432,432.307Z" transform="translate(-398.961 -387.916)"/><path class="c" d="M652.13,411.193c-.044,1.181-.045,2.39-.005,3.59l-.6.021c-.041-1.215-.039-2.437.005-3.633Z" transform="translate(-402.449 -351.2)"/><path class="c" d="M699.544,384.045a20.028,20.028,0,0,1-1.581,3.3l-.512-.306a19.341,19.341,0,0,0,1.533-3.2Z" transform="translate(-398.047 -293.793)"/><path class="c" d="M667.456,419.208a19.042,19.042,0,0,0,2.269,2.731l-.423.421a19.724,19.724,0,0,1-2.341-2.817Z" transform="translate(-400.968 -367.563)"/><path class="c" d="M682.128,441.063l-.39.45a9.345,9.345,0,0,0-3.021-1.726l.2-.563a10.047,10.047,0,0,1,2.7,1.421C681.789,440.779,681.963,440.919,682.128,441.063Z" transform="translate(-399.842 -408.65)"/><path class="c" d="M679.854,444.395l-.164.573a17.865,17.865,0,0,0-3.492-.618l.048-.6A18.453,18.453,0,0,1,679.854,444.395Z" transform="translate(-400.083 -417.07)"/><path class="c" d="M669.458,437.279l.344.488a11.259,11.259,0,0,0-2.513,2.443l-.478-.358A11.881,11.881,0,0,1,669.458,437.279Z" transform="translate(-400.982 -405.215)"/><path class="c" d="M668.779,378.81l.347-.484a31.206,31.206,0,0,0,3.019,1.919l-.292.522A32.048,32.048,0,0,1,668.779,378.81Z" transform="translate(-400.794 -281.171)"/><path class="c" d="M675.9,440.926l-.012.6a10.957,10.957,0,0,0-3.466.492l-.177-.57A11.509,11.509,0,0,1,675.9,440.926Z" transform="translate(-400.462 -411.014)"/><path class="c" d="M674.78,376.424l-.2-.081.226-.551.2.079a29.951,29.951,0,0,0,3.183,1.091l-.159.574A30.419,30.419,0,0,1,674.78,376.424Z" transform="translate(-400.238 -275.164)"/><path class="c" d="M659.315,438.807l-.457-.382c.364-.435.744-.862,1.129-1.27.447-.473.915-.934,1.391-1.37l.4.439c-.466.427-.924.878-1.36,1.339C660.044,437.963,659.671,438.381,659.315,438.807Z" transform="translate(-401.744 -402.176)"/><path class="c" d="M671.6,415.585l.366-.471q1.378,1.07,2.938,2.049l-.318.505Q673,416.671,671.6,415.585Z" transform="translate(-400.523 -358.385)"/><path class="c" d="M669.7,444.095a31.872,31.872,0,0,1,3.5-1l.132.582a31.284,31.284,0,0,0-3.439.985Z" transform="translate(-400.706 -416.032)"/><path class="c" d="M682.906,428.974l.447.394a6.349,6.349,0,0,1-1.216,1.07,3.207,3.207,0,0,1-2.142.593l.059-.593a2.594,2.594,0,0,0,1.75-.5A5.725,5.725,0,0,0,682.906,428.974Z" transform="translate(-399.719 -386.952)"/><path class="c" d="M652.9,417.845c-.219,1.164-.4,2.358-.529,3.549l-.593-.066c.134-1.206.315-2.416.536-3.594Z" transform="translate(-402.423 -364.982)"/><path class="c" d="M684.614,375.09l.053.6a18.818,18.818,0,0,1-3.664-.039l.065-.593A18.046,18.046,0,0,0,684.614,375.09Z" transform="translate(-399.623 -272.573)"/><path class="c" d="M653.335,408.064l-.564.192-.018-.053a22.675,22.675,0,0,1-.976-3.466l.589-.1a22.151,22.151,0,0,0,.952,3.373Z" transform="translate(-402.423 -337.495)"/><path class="c" d="M658.072,395.971c-.595-1.025-1.174-2.1-1.718-3.2l.534-.266c.539,1.086,1.111,2.151,1.7,3.165Z" transform="translate(-401.984 -311.915)"/><path class="c" d="M683.413,433.875l.531-.271.069.138a6.116,6.116,0,0,1,.563,3.541l-.591-.08a5.521,5.521,0,0,0-.508-3.2Z" transform="translate(-399.392 -398.261)"/><path class="c" d="M684.007,441.432a14.662,14.662,0,0,1,1.557,1.35l-.422.422a13.739,13.739,0,0,0-2.791-2.153l.3-.516A14.175,14.175,0,0,1,684.007,441.432Z" transform="translate(-399.494 -411.778)"/><path class="c" d="M657.549,430.624a30.4,30.4,0,0,0-1.739,3.124l-.537-.26a30.744,30.744,0,0,1,1.774-3.184Z" transform="translate(-402.088 -391.11)"/><path class="c" d="M655.085,402.014c-.461-1.086-.91-2.221-1.33-3.375l.561-.2c.417,1.143.861,2.269,1.318,3.347Z" transform="translate(-402.233 -324.454)"/><path class="c" d="M654.083,424.166l.561.2c-.16.443-.314.9-.461,1.363-.217.68-.421,1.374-.6,2.061l-.576-.155c.187-.7.393-1.4.613-2.087C653.763,425.083,653.92,424.616,654.083,424.166Z" transform="translate(-402.305 -378.429)"/><path class="c" d="M734,321.519c.082.127.164.253.248.378a3.829,3.829,0,0,0,.146-.719,3.6,3.6,0,0,0,.008-.448l.6-.027a4.158,4.158,0,0,1-.009.523,4.916,4.916,0,0,1-.192.924c-.036.13-.071.26-.1.391l-.057.244-.54-.03-.138-.213c-.04-.061-.079-.123-.12-.182-.116-.171-.228-.344-.341-.517-.152-.234-.3-.47-.467-.7l.485-.346C733.685,321.036,733.845,321.282,734,321.519Z" transform="translate(-394.638 -160.046)"/><path class="c" d="M727.126,322.648l.39.45a5.522,5.522,0,0,0-.805.866,5.228,5.228,0,0,0-.933,2.034l-.583-.128a5.832,5.832,0,0,1,1.038-2.263A6.109,6.109,0,0,1,727.126,322.648Z" transform="translate(-395.389 -165.39)"/><path class="c" d="M724.362,348.851l.558.211a12.131,12.131,0,0,0-.665,2.6c-.039.286-.072.572-.1.851l-.594-.049c.024-.29.057-.588.1-.885A12.726,12.726,0,0,1,724.362,348.851Z" transform="translate(-395.545 -220.62)"/><path class="c" d="M727.108,318.986q.148.251.308.488l-.5.333q-.169-.251-.325-.517a11.528,11.528,0,0,1-1.239-2.849l.575-.156A10.941,10.941,0,0,0,727.108,318.986Z" transform="translate(-395.374 -152.227)"/><path class="c" d="M730.47,320.73l.263.535a3.865,3.865,0,0,0-1.381,1.149,3.9,3.9,0,0,0-.661,1.4l-.579-.14a4.387,4.387,0,0,1,.762-1.613A4.447,4.447,0,0,1,730.47,320.73Z" transform="translate(-395.109 -161.102)"/><path class="c" d="M731.672,317.474l-.292.521a6.726,6.726,0,0,1-2.673-2.623l.523-.288A6.13,6.13,0,0,0,731.672,317.474Z" transform="translate(-395.052 -149.097)"/><path class="c" d="M753.422,329.873l.594.053c-.009.1-.021.2-.034.3-.154,1.122-.362,2.238-.615,3.315l-.581-.136c.249-1.06.453-2.157.6-3.261C753.4,330.052,753.413,329.962,753.422,329.873Z" transform="translate(-392.746 -180.847)"/><path class="c" d="M730.138,325.291a5.12,5.12,0,0,1,3.018,1.056c.158.118.312.248.46.384l-.405.438a4.63,4.63,0,0,0-3.074-1.282Z" transform="translate(-394.915 -169.458)"/><path class="c" d="M732.718,313.941l-.17.571a12.12,12.12,0,0,1-3.364-1.555l.334-.494A11.559,11.559,0,0,0,732.718,313.941Z" transform="translate(-395.007 -142.744)"/><path class="c" d="M753.817,340.088l-.594.058c-.121-1.233-.282-2.436-.479-3.576l.588-.1C753.532,337.624,753.694,338.841,753.817,340.088Z" transform="translate(-392.75 -194.685)"/><path class="c" d="M730.216,339.735l-.3.516q-.253-.148-.511-.289a11.092,11.092,0,0,1-2.481-1.877l.423-.421a10.5,10.5,0,0,0,2.347,1.776Q729.956,339.585,730.216,339.735Z" transform="translate(-395.223 -196.098)"/><path class="c" d="M725.922,357.459a13.749,13.749,0,0,1,2.6-2.633l.365.472a13.128,13.128,0,0,0-2.485,2.518Z" transform="translate(-395.319 -232.47)"/><path class="c" d="M749.2,317.992l.5.323c-.312.484-.639.956-.971,1.4-.4.531-.818,1.044-1.25,1.525l-.443-.4c.42-.467.828-.967,1.215-1.484C748.575,318.926,748.893,318.465,749.2,317.992Z" transform="translate(-393.297 -155.531)"/><path class="c" d="M741.229,323.511l.553-.224a10.811,10.811,0,0,1,.8,3.627l-.6.023A10.234,10.234,0,0,0,741.229,323.511Z" transform="translate(-393.853 -167.032)"/><path class="c" d="M743.945,354.446a21.257,21.257,0,0,1,2.74,2.452l-.434.409a20.689,20.689,0,0,0-2.663-2.383Z" transform="translate(-393.627 -231.544)"/><path class="c" d="M740.994,318.506a12.713,12.713,0,0,0,.619-1.577l.569.179a13.028,13.028,0,0,1-.649,1.651,8.176,8.176,0,0,1-.862,1.438c-.057.076-.115.151-.174.225l-.466-.374c.056-.068.11-.138.162-.208A7.67,7.67,0,0,0,740.994,318.506Z" transform="translate(-393.968 -153.547)"/><path class="c" d="M744.911,313.941l.362.473c-.318.242-.645.477-.973.7a18.151,18.151,0,0,1-2.16,1.243l-.261-.537a17.5,17.5,0,0,0,2.089-1.2C744.285,314.4,744.6,314.176,744.911,313.941Z" transform="translate(-393.791 -146.204)"/><path class="c" d="M748.552,349.075a28.953,28.953,0,0,1,1.863,3.157l-.531.271a28.489,28.489,0,0,0-1.823-3.091Z" transform="translate(-393.198 -220.854)"/><path class="c" d="M752.55,323.78a32.394,32.394,0,0,1-1.408,3.379l-.536-.26a32,32,0,0,0,1.382-3.318Z" transform="translate(-392.954 -167.576)"/><path class="c" d="M725.537,345.657l-.523.287a12.124,12.124,0,0,1-1.272-3.479l.585-.117A11.538,11.538,0,0,0,725.537,345.657Z" transform="translate(-395.528 -206.924)"/><path class="c" d="M751.048,343.155l.559-.21a36.378,36.378,0,0,1,1.112,3.486l-.576.152A35.982,35.982,0,0,0,751.048,343.155Z" transform="translate(-392.912 -208.217)"/><path class="c" d="M737.839,314.155l.25.542a8.109,8.109,0,0,1-3.661.737l.021-.6A7.5,7.5,0,0,0,737.839,314.155Z" transform="translate(-394.504 -145.527)"/><path class="c" d="M735.277,336.551c-1.06-.855-1.946-1.537-2.868-2.2l.347-.485q.427.306.847.62c.637.476,1.306,1,2.048,1.6Z" transform="translate(-394.698 -188.241)"/><path class="c" d="M737.767,358.926l.114-.585a13.691,13.691,0,0,1,3.5,1.2l-.265.535A13.109,13.109,0,0,0,737.767,358.926Z" transform="translate(-394.185 -238.584)"/><path class="c" d="M731.218,359.643a13.173,13.173,0,0,1,3.589-.906l.063.594a12.585,12.585,0,0,0-3.427.865Z" transform="translate(-394.812 -239.134)"/><path class="c" d="M737.9,329.222A23.714,23.714,0,0,1,740.308,332l-.481.354a23.022,23.022,0,0,0-2.345-2.706Z" transform="translate(-394.212 -178.947)"/><path class="c" d="M739.28,312.858a19.93,19.93,0,0,1-3.637.56l-.037-.6a19.325,19.325,0,0,0,3.528-.544Z" transform="translate(-394.392 -141.448)"/><path class="c" d="M635.856,466.575l-.5-.324c-.071.111-.142.22-.214.324-.24.363-.487.712-.732,1.043-.389.518-.8,1.018-1.219,1.484l.447.4c.427-.48.849-.992,1.244-1.523Q635.39,467.3,635.856,466.575Z" transform="translate(-404.203 -466.251)"/><path class="c" d="M617.54,466.252a6.726,6.726,0,0,1-2.673-2.623l.522-.288a6.141,6.141,0,0,0,2.443,2.391Z" transform="translate(-405.959 -459.815)"/><path class="c" d="M625.439,461.115a19.834,19.834,0,0,1-3.637.56l-.037-.6a19.2,19.2,0,0,0,3.527-.544Z" transform="translate(-405.298 -452.165)"/><path class="c" d="M626.83,468.453c-.057.077-.115.151-.174.226l-.466-.375c.056-.068.11-.138.162-.208a7.672,7.672,0,0,0,.8-1.334,12.706,12.706,0,0,0,.619-1.577l.569.179a13.037,13.037,0,0,1-.649,1.651A8.245,8.245,0,0,1,626.83,468.453Z" transform="translate(-404.874 -464.263)"/><path class="c" d="M624,462.412l.25.542a8.11,8.11,0,0,1-3.661.737l.021-.6A7.5,7.5,0,0,0,624,462.412Z" transform="translate(-405.411 -456.244)"/><path class="c" d="M631.069,462.2l.363.473c-.318.242-.645.477-.973.7a18.3,18.3,0,0,1-2.16,1.242l-.261-.537a17.5,17.5,0,0,0,2.089-1.2C630.444,462.659,630.762,462.433,631.069,462.2Z" transform="translate(-404.697 -456.922)"/><path class="c" d="M613.267,467.244q.148.25.308.488l-.5.332q-.169-.251-.326-.517a11.555,11.555,0,0,1-1.238-2.848l.575-.157A10.949,10.949,0,0,0,613.267,467.244Z" transform="translate(-406.28 -462.944)"/><path class="c" d="M618.707,462.769a12.152,12.152,0,0,1-3.364-1.556l.334-.494a11.528,11.528,0,0,0,3.2,1.478Z" transform="translate(-405.913 -453.46)"/><path class="c" d="M713.631,420.474l.51-.308a9.59,9.59,0,0,0,2.291,2.581l-.368.469A10.158,10.158,0,0,1,713.631,420.474Z" transform="translate(-396.497 -369.469)"/><path class="c" d="M712.455,429.458a10.2,10.2,0,0,1-.016-3.665l.587.1a9.624,9.624,0,0,0,.015,3.453Z" transform="translate(-396.626 -381.878)"/><path class="c" d="M714.669,434.224a9.552,9.552,0,0,0-.561.838l-.513-.306a10.586,10.586,0,0,1,.6-.89A10.232,10.232,0,0,1,716,431.994l.371.466A9.647,9.647,0,0,0,714.669,434.224Z" transform="translate(-396.5 -394.276)"/><path class="c" d="M718.925,436.918l-.183-.568a10.215,10.215,0,0,1,3.634-.481l-.029.6A9.635,9.635,0,0,0,718.925,436.918Z" transform="translate(-396.007 -400.365)"/><path class="c" d="M729.549,428.45l.54-.253a10.223,10.223,0,0,1,.939,3.543l-.594.048A9.639,9.639,0,0,0,729.549,428.45Z" transform="translate(-394.972 -386.841)"/><path class="c" d="M725.163,420.918a9.528,9.528,0,0,0,2.852-1.942l.42.424a10.119,10.119,0,0,1-3.031,2.062Z" transform="translate(-395.392 -366.411)"/><path class="c" d="M718.81,418.747l.179-.57a9.58,9.58,0,0,0,3.427.425l.034.6A10.162,10.162,0,0,1,718.81,418.747Z" transform="translate(-396.001 -363.289)"/><path class="c" d="M730.75,422.082a10.181,10.181,0,0,1-1.636,3.282l-.478-.357a9.606,9.606,0,0,0,1.541-3.09Z" transform="translate(-395.059 -373.536)"/><path class="c" d="M725.1,434.351l.239-.547a10.3,10.3,0,0,1,3.044,2.039l-.414.428A9.761,9.761,0,0,0,725.1,434.351Z" transform="translate(-395.398 -397.469)"/><path class="c" d="M675.809,457.484a5.6,5.6,0,1,1-1.134-7.83A5.61,5.61,0,0,1,675.809,457.484Zm-1.49-7.35a5,5,0,1,0,1.011,6.992A5,5,0,0,0,674.318,450.134Z" transform="translate(-401.085 -437.076)"/><path class="c" d="M625.019,354.885a5.6,5.6,0,1,1-1.134-7.83A5.607,5.607,0,0,1,625.019,354.885Zm-1.484-7.35a5,5,0,1,0,1,6.992A5.008,5.008,0,0,0,623.535,347.535Z" transform="translate(-405.951 -222.044)"/><path class="c" d="M652.988,390.169a3.991,3.991,0,1,1-.8-5.586A3.983,3.983,0,0,1,652.988,390.169Zm-1.166-5.106a3.391,3.391,0,1,0,.687,4.75A3.4,3.4,0,0,0,651.822,385.063Z" transform="translate(-402.995 -298.164)"/><path class="c" d="M693.612,420.272a3.991,3.991,0,1,1-.8-5.586A3.992,3.992,0,0,1,693.612,420.272Zm-1.167-5.108a3.392,3.392,0,1,0,.687,4.75A3.4,3.4,0,0,0,692.445,415.164Z" transform="translate(-399.103 -361.252)"/><path class="c" d="M671.125,371.2a2.141,2.141,0,1,1-.434-3A2.148,2.148,0,0,1,671.125,371.2Zm-.784-2.521a1.549,1.549,0,1,0,.311,2.164A1.547,1.547,0,0,0,670.342,368.677Z" transform="translate(-400.939 -260.897)"/><path class="c" d="M625.019,443.367a2.146,2.146,0,1,1-.434-3.007A2.151,2.151,0,0,1,625.019,443.367Zm-.79-2.527a1.549,1.549,0,1,0,.311,2.164A1.557,1.557,0,0,0,624.229,440.84Z" transform="translate(-405.356 -412.137)"/><path class="c" d="M714.535,352.479a2.141,2.141,0,1,1-.435-3A2.135,2.135,0,0,1,714.535,352.479Zm-.791-2.52a1.546,1.546,0,1,0-1.853,2.475,1.546,1.546,0,1,0,1.853-2.475Z" transform="translate(-396.78 -221.661)"/><path class="c" d="M747.677,366.189a2.146,2.146,0,1,1-.434-3A2.148,2.148,0,0,1,747.677,366.189Zm-.79-2.521a1.546,1.546,0,1,0,.311,2.164A1.543,1.543,0,0,0,746.887,363.668Z" transform="translate(-393.605 -250.399)"/><path class="c" d="M699.383,443.48a2.146,2.146,0,1,1-.434-3.007A2.148,2.148,0,0,1,699.383,443.48Zm-.791-2.528a1.551,1.551,0,1,0,.311,2.165A1.549,1.549,0,0,0,698.592,440.952Z" transform="translate(-398.232 -412.379)"/><path class="c" d="M710.964,387.626a3.5,3.5,0,1,1-.713-4.893A3.506,3.506,0,0,1,710.964,387.626Zm-1.07-4.413a2.9,2.9,0,1,0,.589,4.057A2.9,2.9,0,0,0,709.895,383.213Z" transform="translate(-397.356 -293.501)"/><path class="c" d="M723.644,363.968a3.5,3.5,0,1,1-.713-4.9A3.511,3.511,0,0,1,723.644,363.968Zm-1.07-4.419a2.9,2.9,0,1,0,.59,4.063A2.905,2.905,0,0,0,722.575,359.548Z" transform="translate(-396.141 -243.914)"/><path class="c" d="M644.236,433.965a2.686,2.686,0,1,1,2.275-3.04A2.684,2.684,0,0,1,644.236,433.965Zm1.685-2.955a2.088,2.088,0,1,0-1.77,2.366A2.1,2.1,0,0,0,645.922,431.009Z" transform="translate(-403.439 -389.513)"/><path class="c" d="M714.946,401.938a4.786,4.786,0,1,1-.965-6.694A4.795,4.795,0,0,1,714.946,401.938Zm-1.323-6.215a4.188,4.188,0,1,0,.849,5.866A4.194,4.194,0,0,0,713.623,395.723Z" transform="translate(-397.197 -321.76)"/><path class="c" d="M712.306,399.9a1.81,1.81,0,1,1-.369-2.535A1.822,1.822,0,0,1,712.306,399.9Zm-.725-2.055a1.211,1.211,0,1,0,.247,1.691A1.216,1.216,0,0,0,711.58,397.847Z" transform="translate(-396.936 -321.498)"/><path class="c" d="M765.944,400.561a4.2,4.2,0,0,0,5.871-.848,4.1,4.1,0,0,0,.687-1.414v1.472c-.071.1-.136.2-.214.3a4.788,4.788,0,1,1-.96-6.7,4.7,4.7,0,0,1,1.174,1.263V396.1a4.192,4.192,0,1,0-6.558,4.459Z" transform="translate(-391.703 -317.842)"/><path class="c" d="M769.649,398.027a1.81,1.81,0,1,1-.369-2.527A1.817,1.817,0,0,1,769.649,398.027Zm-.732-2.054a1.211,1.211,0,1,0,.253,1.7A1.208,1.208,0,0,0,768.917,395.973Z" transform="translate(-391.442 -317.583)"/><path class="c" d="M608.314,444.953a4.785,4.785,0,1,1-.959-6.7A4.78,4.78,0,0,1,608.314,444.953Zm-1.322-6.222a4.191,4.191,0,1,0,.848,5.866A4.193,4.193,0,0,0,606.993,438.731Z" transform="translate(-407.412 -411.902)"/><path class="c" d="M605.669,442.913a1.809,1.809,0,1,1-.363-2.535A1.809,1.809,0,0,1,605.669,442.913Zm-.72-2.055a1.21,1.21,0,1,0,.24,1.7A1.212,1.212,0,0,0,604.949,440.858Z" transform="translate(-407.151 -411.643)"/><path class="c" d="M749.252,448.574a4.787,4.787,0,1,1-.965-6.7A4.793,4.793,0,0,1,749.252,448.574Zm-1.322-6.221a4.19,4.19,0,1,0,.843,5.865A4.193,4.193,0,0,0,747.931,442.353Z" transform="translate(-393.91 -419.489)"/><path class="c" d="M746.608,446.526a1.808,1.808,0,1,1-.363-2.527A1.812,1.812,0,0,1,746.608,446.526Zm-.725-2.048a1.209,1.209,0,1,0,.245,1.692A1.21,1.21,0,0,0,745.882,444.478Z" transform="translate(-393.649 -419.23)"/><path class="c" d="M650.131,466.638v.007a6,6,0,0,1-.422.667,4.78,4.78,0,0,1-8.081-.667v-.007a4.866,4.866,0,0,1-.357-.894v-.007h.622v.007a4.144,4.144,0,0,0,.415.894.006.006,0,0,1,.007.007,4.105,4.105,0,0,0,1.05,1.154,4.2,4.2,0,0,0,5.871-.849c.071-.1.142-.2.207-.3v-.007a3.934,3.934,0,0,0,.414-.894v-.007h.629v.007A5.055,5.055,0,0,1,650.131,466.638Z" transform="translate(-403.429 -465.42)"/><path class="c" d="M633.514,363.737a4.787,4.787,0,1,1-.965-6.7A4.794,4.794,0,0,1,633.514,363.737Zm-1.322-6.222a4.188,4.188,0,1,0,.842,5.859A4.2,4.2,0,0,0,632.193,357.515Z" transform="translate(-404.998 -241.687)"/><path class="c" d="M630.87,361.694a1.808,1.808,0,1,1-.369-2.534A1.808,1.808,0,0,1,630.87,361.694Zm-.72-2.054a1.211,1.211,0,1,0,.24,1.7A1.211,1.211,0,0,0,630.15,359.64Z" transform="translate(-404.738 -241.426)"/><path class="c" d="M680.313,341.134a4.79,4.79,0,1,1-.965-6.7A4.793,4.793,0,0,1,680.313,341.134Zm-1.322-6.221a4.193,4.193,0,1,0,.841,5.865A4.208,4.208,0,0,0,678.991,334.913Z" transform="translate(-400.515 -194.315)"/><path class="c" d="M677.668,339.091a1.808,1.808,0,1,1-.369-2.534A1.817,1.817,0,0,1,677.668,339.091Zm-.727-2.055a1.211,1.211,0,1,0,.247,1.7A1.217,1.217,0,0,0,676.941,337.037Z" transform="translate(-400.254 -194.054)"/><path class="c" d="M700.5,465.9h-6.383a3.194,3.194,0,1,0,6.383,0Z" transform="translate(-398.367 -465.572)"/><path class="c" d="M697.73,459.667a3.2,3.2,0,1,1-4.477.645A3.2,3.2,0,0,1,697.73,459.667Z" transform="translate(-398.51 -454.268)"/><path class="c" d="M700.5,467.142a3.2,3.2,0,1,1,4.479-.645A3.2,3.2,0,0,1,700.5,467.142Z" transform="translate(-397.878 -459.196)"/></g></g></svg>