<svg xmlns="http://www.w3.org/2000/svg" width="227.852" height="41.818" viewBox="0 0 227.852 41.818"><defs><style>.a{fill:#eeae66;}.b{fill:#e6295c;}</style></defs><g transform="translate(-510.219 -339.176)"><g transform="translate(510.219 339.176)"><g transform="translate(0 0.172)"><g transform="translate(0 5.41)"><path class="a" d="M543.246,352.506a22.854,22.854,0,0,1,0-2.63,2.945,2.945,0,0,0-.436-1.788s-.009-.013-.009-.013a3.464,3.464,0,0,0-.61-.724,12.38,12.38,0,0,0-5.124-2.64,1.285,1.285,0,0,0-.155-.036l-2.429-.487c-.082-.013-.164-.027-.246-.037a3.955,3.955,0,0,1-.287.528c-.859,1.552-2.676,3.258-5.4,5.082l-.5.337-.5-.341c-2.8-1.87-4.641-3.621-5.469-5.206a3.04,3.04,0,0,1-.2-.381c-.983.15-1.9.332-2.748.55a15.48,15.48,0,0,0-3.968,1.693,5.356,5.356,0,0,0-1.742,1.638,3.831,3.831,0,0,0-.551,2.543,9.185,9.185,0,0,1,.009,1.62,3.623,3.623,0,0,0,1.656,3.377A10.436,10.436,0,0,0,516.8,356.9a31.78,31.78,0,0,0,20.954.6,16.911,16.911,0,0,0,4.109-2.116A3,3,0,0,0,543.246,352.506Zm-21.094,2.725c3.121,0,6.251.123,9.368-.04a27.518,27.518,0,0,0,8.986-2.025C534.656,356.314,528.449,356.459,522.152,355.231Zm5.892-6.266c-.651-.418-1.215-.815-1.711-1.192q.757.587,1.711,1.229c.769-.509,1.433-.992,2-1.447C529.481,347.992,528.822,348.46,528.044,348.965Z" transform="translate(-509.899 -344.151)"/><path class="a" d="M543.237,360.034a11.427,11.427,0,0,0,.007,1.343c.257,1.962-.768,3.194-2.313,4.139A19.657,19.657,0,0,1,533.072,368a33.431,33.431,0,0,1-14.823-1.106,15.333,15.333,0,0,1-1.968-.8c-2.988-1.451-3.68-2.734-3.335-6.12,2.006,3.064,5.253,3.826,8.487,4.513a35.287,35.287,0,0,0,9.879.515,11.944,11.944,0,0,1,3.559.427,2.652,2.652,0,0,0,2.608-.615c1.167-1.034,1.442-1,2.329.22.384.529.71.405,1.024-.044a1.265,1.265,0,0,0,.186-.464,10.627,10.627,0,0,1,.528-2.451A11.046,11.046,0,0,1,543.237,360.034Z" transform="translate(-509.896 -342.222)"/><path class="a" d="M512.876,354.938a8.829,8.829,0,0,0,3.683,3.027,11.429,11.429,0,0,1,2.424,1.751,2.184,2.184,0,0,0,2.635.578c1.521-.633,2.26-.306,3.019,1.179.867,1.7,2.142,1.843,3.228.265a3.917,3.917,0,0,1,3.274-1.828,23.825,23.825,0,0,0,8.152-1.834,7.57,7.57,0,0,0,3.814-3.055c.54,2.878-.044,4.215-2.521,5.64a20.022,20.022,0,0,1-7.5,2.279,33.5,33.5,0,0,1-14.229-.924,18.889,18.889,0,0,1-3.688-1.622,4,4,0,0,1-2.3-4.156A11.673,11.673,0,0,0,512.876,354.938Z" transform="translate(-509.9 -342.836)"/><path class="a" d="M546.281,361.5a3.454,3.454,0,0,1-.98,4.144,17.908,17.908,0,0,1-4.45,2.892,32.241,32.241,0,0,1-14.587,2.174,27.2,27.2,0,0,1-11.257-2.595,16.179,16.179,0,0,1-3.9-2.962,3.3,3.3,0,0,1-.51-3.839c-.582,2.323.622,3.822,2.355,5.019a19.758,19.758,0,0,0,7.906,2.949,38.633,38.633,0,0,0,18.521-.875,19.1,19.1,0,0,0,3.957-1.765C545.253,365.524,546.733,364.044,546.281,361.5Z" transform="translate(-510.219 -342.059)"/></g><path class="b" d="M529.17,339.329a3.514,3.514,0,0,1-4.318,0,3.543,3.543,0,0,0-3.057,5.3.5.5,0,0,0,.036.068,8.906,8.906,0,0,0,1.779,2.229c.1.1.205.2.314.3.341.31.728.637,1.164.978.068.055.137.109.21.159.5.377,1.06.773,1.711,1.191.778-.5,1.437-.973,2-1.41.082-.064.164-.127.241-.191,0,0,.009,0,.009-.009.123-.1.241-.2.351-.292s.218-.191.323-.282.227-.205.332-.305c.027-.022.054-.05.082-.077.086-.082.168-.159.246-.246a8.7,8.7,0,0,0,1.538-1.939c.04-.064.077-.127.113-.2a3.541,3.541,0,0,0-3.076-5.279Zm1.84,5.112a2.438,2.438,0,0,0-2.353-4.086,2.413,2.413,0,0,0-.817.4,2.388,2.388,0,0,1,1.076-.622,2.439,2.439,0,0,1,2.094,4.311Z" transform="translate(-508.864 -339.329)"/></g><g transform="translate(49.572)"><path class="a" d="M566.472,339.79H554.4v.944h.358c2.851,0,3.315.337,3.315,2.4v27.09c0,2.064-.464,2.4-3.315,2.4H554.4v.947h11.739v-.947h-.358c-2.851,0-3.315-.335-3.315-2.4V358.187l3.315,0c8.219,0,11.148-4.874,11.148-9.435C576.933,342.562,571.679,339.79,566.472,339.79Zm-.688,17.45h-3.315v-16.5h4c2.521,0,6.072,2.487,6.072,8.017C572.544,352.669,570.774,357.24,565.785,357.24Z" transform="translate(-554.404 -339.101)"/><path class="a" d="M574.876,340.737h.36c2.851,0,3.314.337,3.314,2.4v27.093c0,2.062-.463,2.4-3.314,2.4h-.36v.944h11.737v-.944h-.357c-2.851,0-3.317-.336-3.317-2.4V343.136c0-2.062.467-2.4,3.317-2.4h.357v-.947H574.876Z" transform="translate(-551.908 -339.101)"/><path class="a" d="M646.167,340.737h.357c2.852,0,3.315.337,3.315,2.4v20.9c0,10.73-4.091,15.944-12.5,15.944-6.9,0-12.726-5.5-12.726-12.016,0-7.535,4.416-10.7,8.2-12.029l4.914,14.743a1.527,1.527,0,0,1-.013,1.345c-.3.405-1.119.607-2.437.607h-.357v.947h11.738v-.947H646.3c-2.744,0-3.674-.538-4.333-2.507L631.9,339.907l-.042-.117h-7.044v.947h.357c1.8,0,2.416.333,2.622.611a.8.8,0,0,1,.038.758l-8.794,28.015c-.669,2.151-1.259,2.5-4.2,2.5h-.258c-2.47,0-4.388-4.182-5.276-7.761a10.89,10.89,0,0,0-6.753-7.873c5.1-.955,8.482-4.2,8.482-8.231a7.882,7.882,0,0,0-3.984-6.886,14.646,14.646,0,0,0-7.623-2.08H586.9v.944h.357c2.851,0,3.314.337,3.314,2.4v27.093c0,2.062-.463,2.4-3.314,2.4H586.9v.947h11.737v-.947h-.357c-2.854,0-3.321-.335-3.321-2.4V357.268h4.468c1.754,0,4.151,2.1,5.62,7.995,1.38,5.511,4.584,8.307,9.535,8.307h8.194v-.947h-.357c-1.452,0-2.262-.182-2.55-.572-.222-.3-.2-.83.083-1.715l8.563-27.291,4,11.991c-4.076,1.39-8.845,4.762-8.845,12.922,0,8.008,7.1,12.962,13.673,12.962a16.81,16.81,0,0,0,11.612-4.518c3.454-3.264,5.28-7.858,5.28-13.292V343.132c0-2.059.467-2.4,3.319-2.4h.357v-.947H646.167Zm-46.742,15.588-4.468,0V340.734h4.468a7.576,7.576,0,0,1,7.215,8.023C606.64,352.507,603,356.325,599.425,356.325Z" transform="translate(-550.443 -339.101)"/><path class="a" d="M672.657,369.538c0,2.625-.36,3.088-2.4,3.088H659.825V357.039h6.99c2.062,0,2.4.466,2.4,3.314v.36h.947V352.42h-.947v.357c0,2.852-.335,3.319-2.4,3.319h-6.99V340.737h9.744c2.042,0,2.4.463,2.4,3.085v.36h.947V339.79H651.762v.947h.36c2.847,0,3.314.337,3.314,2.4v27.093c0,2.062-.467,2.4-3.314,2.4h-.36v.944H673.6v-4.388h-.944Z" transform="translate(-542.536 -339.101)"/><path class="a" d="M693.16,369.538c0,2.625-.36,3.088-2.4,3.088h-10.43V357.039h6.99c2.059,0,2.394.466,2.394,3.314v.36h.947V352.42h-.947v.357c0,2.852-.335,3.319-2.394,3.319h-6.99V340.737h9.744c2.039,0,2.4.463,2.4,3.085v.36h.947V339.79H672.268v.947h.357c2.851,0,3.314.337,3.314,2.4v27.093c0,2.062-.464,2.4-3.314,2.4h-.357v.944h21.839v-4.388h-.947Z" transform="translate(-540.036 -339.101)"/><path class="a" d="M705.5,353.312c-3.942-1.743-7.668-3.387-7.853-6.906a5.8,5.8,0,0,1,1.547-4.359,6.655,6.655,0,0,1,4.982-1.924,7.4,7.4,0,0,1,5.456,2.529c1.457,1.657,1.764,4.464,1.764,6.526v.36h.947v-8.063h-.947v.357a7.673,7.673,0,0,1-.1,1.455c-.052-.066-.123-.165-.213-.306a8.266,8.266,0,0,0-7.14-3.8,11,11,0,0,0-7.966,3.016,7.2,7.2,0,0,0-2.035,5.394c.2,5.019,4.652,7.123,8.965,9.157,4.365,2.059,8.486,4,8.486,8.74,0,4.8-3.116,7.9-7.933,7.9a10.075,10.075,0,0,1-7.7-3.184c-1.235-1.582-1.787-3.6-1.787-6.56v-.358h-.945v8.063h.945v-.36a9.627,9.627,0,0,1,.082-1.492c.1.14.223.319.285.412l.154.233h0a10.722,10.722,0,0,0,8.942,4.193c5.792,0,12.122-3.032,12.345-9.685C716,357.958,710.42,355.491,705.5,353.312Z" transform="translate(-537.506 -339.176)"/></g></g></g></svg>