<svg xmlns="http://www.w3.org/2000/svg" width="29.26" height="31.511" viewBox="0 0 29.26 31.511"><defs><style>.a{fill:#eaad68;}.b{fill:#342766;}</style></defs><g transform="translate(-3 -2)"><path class="a" d="M31.134,6.5c-9.554,0-12.559-3.984-12.582-4.018A1.125,1.125,0,0,0,17.63,2h0a1.125,1.125,0,0,0-.923.473S13.68,6.5,4.125,6.5A1.125,1.125,0,0,0,3,7.627v9.858c0,10.41,8,13.5,12.773,15.373l1.429.563a1.058,1.058,0,0,0,.855,0l1.429-.563C24.258,31,32.26,27.884,32.26,17.485V7.627A1.125,1.125,0,0,0,31.134,6.5Z" transform="translate(0 0)"/><path class="b" d="M30.63,7.627v9.858c0,10.41-8,13.5-12.773,15.373l-1.429.563a1.125,1.125,0,0,1-.428.09V2h0a1.125,1.125,0,0,1,.912.484S19.95,6.5,29.5,6.5A1.125,1.125,0,0,1,30.63,7.627Z" transform="translate(1.63 0)"/></g></svg>