<svg xmlns="http://www.w3.org/2000/svg" width="151.497" height="23.662" viewBox="0 0 151.497 23.662"><defs><style>.a{fill:#eeae66;}</style></defs><g transform="translate(-251.105 -792)"><g transform="translate(251.105 792)"><path class="a" d="M24.713,219.6a1.705,1.705,0,0,0-1.377-1.159l-6.51-.946-2.909-5.877a1.775,1.775,0,0,0-3.055,0L7.954,217.5l-6.494.946a1.7,1.7,0,0,0-.944,2.905l4.71,4.591-1.111,6.477a1.7,1.7,0,0,0,2.474,1.8l5.8-3.059,5.818,3.059a1.7,1.7,0,0,0,.792.2,1.732,1.732,0,0,0,1-.324,1.71,1.71,0,0,0,.678-1.668l-1.109-6.477,4.71-4.591A1.7,1.7,0,0,0,24.713,219.6Z" transform="translate(0 -210.746)"/></g><g transform="translate(282.78 792)"><path class="a" d="M129,219.6a1.705,1.705,0,0,0-1.377-1.159l-6.51-.946-2.909-5.877a1.775,1.775,0,0,0-3.055,0l-2.909,5.877-6.494.946a1.7,1.7,0,0,0-.944,2.905l4.71,4.591-1.111,6.477a1.7,1.7,0,0,0,2.474,1.8l5.8-3.059,5.818,3.059a1.7,1.7,0,0,0,.792.2,1.732,1.732,0,0,0,1-.324,1.71,1.71,0,0,0,.678-1.668l-1.109-6.477,4.71-4.591A1.7,1.7,0,0,0,129,219.6Z" transform="translate(-104.289 -210.746)"/></g><g transform="translate(314.455 792)"><path class="a" d="M233.291,219.6a1.705,1.705,0,0,0-1.377-1.159l-6.51-.946-2.909-5.877a1.775,1.775,0,0,0-3.055,0l-2.909,5.877-6.494.946a1.7,1.7,0,0,0-.944,2.905l4.71,4.591-1.111,6.477a1.7,1.7,0,0,0,2.474,1.8l5.8-3.059,5.818,3.059a1.7,1.7,0,0,0,.792.2,1.732,1.732,0,0,0,1-.324,1.71,1.71,0,0,0,.678-1.668l-1.109-6.477,4.71-4.591A1.7,1.7,0,0,0,233.291,219.6Z" transform="translate(-208.578 -210.746)"/></g><g transform="translate(346.13 792)"><path class="a" d="M337.58,219.6a1.705,1.705,0,0,0-1.377-1.159l-6.51-.946-2.909-5.877a1.775,1.775,0,0,0-3.056,0l-2.909,5.877-6.494.946a1.7,1.7,0,0,0-.944,2.905l4.71,4.591-1.111,6.477a1.7,1.7,0,0,0,2.474,1.8l5.8-3.059,5.818,3.059a1.7,1.7,0,0,0,.792.2,1.732,1.732,0,0,0,1-.324,1.71,1.71,0,0,0,.678-1.668l-1.109-6.477,4.71-4.591A1.7,1.7,0,0,0,337.58,219.6Z" transform="translate(-312.867 -210.746)"/></g><g transform="translate(377.806 792)"><path class="a" d="M441.869,219.6a1.708,1.708,0,0,0-1.377-1.159l-6.51-.946-2.909-5.877a1.775,1.775,0,0,0-3.056,0L425.11,217.5l-6.494.946a1.7,1.7,0,0,0-.944,2.905l4.71,4.591-1.111,6.477a1.706,1.706,0,0,0,2.476,1.8l5.8-3.059,5.819,3.059a1.7,1.7,0,0,0,2.471-1.8l-1.109-6.477,4.71-4.591A1.7,1.7,0,0,0,441.869,219.6Z" transform="translate(-417.156 -210.746)"/></g></g></svg>