<svg xmlns="http://www.w3.org/2000/svg" width="24.797" height="23.661" viewBox="0 0 24.797 23.661"><defs><style>.a{fill:#eeae66;}</style></defs><path class="a" d="M129,219.6a1.705,1.705,0,0,0-1.377-1.159l-6.51-.946-2.909-5.877a1.775,1.775,0,0,0-3.055,0l-2.909,5.877-6.494.946a1.7,1.7,0,0,0-.944,2.905l4.71,4.591-1.111,6.477a1.7,1.7,0,0,0,2.474,1.8l5.8-3.059,5.818,3.059a1.7,1.7,0,0,0,.792.2,1.732,1.732,0,0,0,1-.324,1.71,1.71,0,0,0,.678-1.668l-1.109-6.477,4.71-4.591A1.7,1.7,0,0,0,129,219.6Z" transform="translate(-104.289 -210.746)"/></svg>